<svg width="56" height="57" viewBox="0 0 56 57" fill="none" xmlns="http://www.w3.org/2000/svg">
<path d="M47.7852 6.29883H8.25391C7.30322 6.29883 6.53516 7.08086 6.53516 8.04883V48.2988C6.53516 49.2668 7.30322 50.0488 8.25391 50.0488H47.7852C48.7358 50.0488 49.5039 49.2668 49.5039 48.2988V8.04883C49.5039 7.08086 48.7358 6.29883 47.7852 6.29883ZM42.8223 19.0684H39.3901C36.6992 19.0684 36.1782 20.3699 36.1782 22.284V26.5004H42.6021L41.7642 33.1012H36.1782V50.0488H29.4805V33.1066H23.8784V26.5004H29.4805V21.6332C29.4805 15.984 32.8696 12.9051 37.8218 12.9051C40.1958 12.9051 42.2314 13.0855 42.8276 13.1676V19.0684H42.8223Z" fill="#112D57"/>
</svg>
