<svg width="56" height="57" viewBox="0 0 56 57" fill="none" xmlns="http://www.w3.org/2000/svg">
<path d="M48.1265 6.29883H7.87646C6.9085 6.29883 6.12646 7.08086 6.12646 8.04883V48.2988C6.12646 49.2668 6.9085 50.0488 7.87646 50.0488H48.1265C49.0944 50.0488 49.8765 49.2668 49.8765 48.2988V8.04883C49.8765 7.08086 49.0944 6.29883 48.1265 6.29883ZM19.1038 43.5793H12.6124V22.6996H19.1038V43.5793ZM15.8608 19.8449C15.1167 19.8449 14.3892 19.6243 13.7705 19.2108C13.1518 18.7974 12.6695 18.2098 12.3847 17.5223C12.1 16.8348 12.0255 16.0782 12.1706 15.3484C12.3158 14.6185 12.6742 13.9481 13.2004 13.4219C13.7265 12.8957 14.397 12.5374 15.1268 12.3922C15.8567 12.247 16.6132 12.3216 17.3007 12.6063C17.9882 12.8911 18.5758 13.3733 18.9892 13.9921C19.4027 14.6108 19.6233 15.3383 19.6233 16.0824C19.6179 18.1605 17.9335 19.8449 15.8608 19.8449ZM43.4069 43.5793H36.921V33.4238C36.921 31.0012 36.8772 27.8895 33.5468 27.8895C30.1726 27.8895 29.653 30.5254 29.653 33.2488V43.5793H23.1726V22.6996H29.396V25.5543H29.4835C30.3476 23.9137 32.464 22.1801 35.6249 22.1801C42.1983 22.1801 43.4069 26.5059 43.4069 32.1277V43.5793Z" fill="#112D57"/>
</svg>
