<svg width="57" height="57" viewBox="0 0 57 57" fill="none" xmlns="http://www.w3.org/2000/svg">
<path d="M50.7909 14.0809C49.1174 14.8028 47.2963 15.3223 45.4206 15.5246C47.368 14.3676 48.8264 12.5398 49.5221 10.384C47.6946 11.4711 45.6926 12.2334 43.6049 12.6371C42.7324 11.7043 41.677 10.9612 40.5047 10.454C39.3324 9.94692 38.0682 9.68665 36.7909 9.68948C31.6229 9.68948 27.4667 13.8785 27.4667 19.0192C27.4667 19.741 27.5542 20.4629 27.6963 21.1574C19.9581 20.7528 13.0565 17.0559 8.46821 11.3957C7.63218 12.8237 7.19407 14.4496 7.19946 16.1043C7.19946 19.3418 8.84556 22.1965 11.3557 23.8754C9.87644 23.8172 8.43181 23.4106 7.13931 22.6887V22.8035C7.13931 27.3371 10.344 31.0942 14.6151 31.9582C13.8131 32.1665 12.9882 32.2731 12.1596 32.2754C11.5526 32.2754 10.9784 32.2153 10.3987 32.1332C11.5799 35.8301 15.0198 38.5153 19.1159 38.6028C15.9112 41.1129 11.8971 42.5895 7.53853 42.5895C6.75649 42.5895 6.03462 42.5621 5.2854 42.4746C9.41978 45.127 14.3252 46.6582 19.6081 46.6582C36.7581 46.6582 46.1424 32.4504 46.1424 20.1184C46.1424 19.7137 46.1424 19.309 46.1151 18.9043C47.9307 17.5754 49.5221 15.9293 50.7909 14.0809Z" fill="#112D57"/>
</svg>
