<svg width="42" height="42" viewBox="0 0 42 42" fill="none" xmlns="http://www.w3.org/2000/svg">
<path d="M13.6562 1H5.92188C4.14922 1.25469 4.25547 3.03828 3.78437 4.38281C3.31328 5.72656 3.03281 7.18437 2.62188 8.55859C2.21016 9.93281 1.775 11.3047 1.39062 12.7188C4.69766 12.7188 8.00547 12.7188 11.3125 12.7188C12.0656 8.75625 12.832 4.92422 13.6562 1Z" fill="#FB7901" fill-opacity="0.99"/>
<path d="M24.9062 1H17.0938C16.1633 4.88359 15.5414 8.77266 14.6719 12.7188C18.8422 12.5883 23.1555 12.5883 27.3281 12.7188C26.4562 8.76328 25.8359 4.87969 24.9062 1Z" fill="#FB7901"/>
<path d="M36.2344 1H28.4219C29.0719 4.96406 29.9859 8.75781 30.6875 12.7188C33.9945 12.7188 37.3023 12.7188 40.6094 12.7188C40.2086 11.2625 39.7906 9.86016 39.3898 8.48047C38.9891 7.10156 38.6562 5.73047 38.2031 4.37891C37.7492 3.02656 37.8477 1.37109 36.2344 1Z" fill="#FB7901" fill-opacity="0.99"/>
<path d="M1 16.3125C1.06172 17.3977 1.83438 18.307 2.73828 18.9055C3.64219 19.5039 5.33984 19.3641 6.85938 19.3594C8.37891 19.3547 9.98672 19.4898 10.9414 18.9539C11.8961 18.418 12.5305 17.4273 12.6406 16.3906C12.8594 17.4711 13.3617 18.1883 14.3008 18.8273C15.2398 19.4664 16.5664 19.3664 18.1875 19.3594C19.8086 19.3523 22.1063 19.3516 23.7344 19.3594C25.3625 19.3672 26.7297 19.4688 27.6641 18.8352C28.5992 18.2008 29.1625 17.4891 29.3594 16.3906C29.4656 17.525 30.1336 18.3445 31.0977 18.9055C32.0625 19.4664 33.6227 19.4039 35.1406 19.3594C36.6586 19.3148 38.3891 19.5438 39.3008 18.9539C40.2133 18.3641 40.8219 17.4258 41 16.4688V14.3594C27.6664 14.3594 14.3336 14.3594 1 14.3594V16.3125Z" fill="#FB7901" fill-opacity="0.99"/>
<path d="M3.89062 41H7.71875C7.76484 39.2758 7.65781 37.3961 7.71875 35.6875C7.77969 33.9789 7.60156 32.0266 7.71875 30.375C7.83594 28.7234 7.45703 26.7766 7.73516 25.4352C8.01328 24.0938 9.425 24.3789 10.8438 24.3594C12.2625 24.3398 14.7047 24.3719 16.1562 24.3594C17.6078 24.3469 18.8703 24.143 19.218 25.4727C19.5656 26.8031 19.2945 28.6531 19.3594 30.2969C19.4242 31.9406 19.3258 33.8961 19.3594 35.6094C19.393 37.3227 19.3344 39.2656 19.3594 41H38.1875C39.0398 40.4297 39.3977 40.093 39.2812 38.7344C39.1648 37.3758 39.3305 35.6422 39.2812 34.2031C39.232 32.7641 39.2969 31.1445 39.2812 29.6719C39.2656 28.1992 39.2742 26.6211 39.2812 25.1406C39.2883 23.6602 39.2109 22.1352 39.3594 20.6875C37.8477 21.257 35.1086 20.9125 33.1875 21C31.2664 21.0875 30.5914 20.5789 29.2812 19.75C27.6094 21.4953 24.1117 20.9937 21 21C17.8883 21.0063 14.3797 21.4867 12.7188 19.75C11.3922 20.6523 10.5789 21.0883 8.65625 21C6.73359 20.9117 4.13672 21.2578 2.64062 20.6875C2.82891 23.0938 2.65859 25.8508 2.71875 28.2656C2.77891 30.6805 2.63437 33.5289 2.71875 35.8438C2.80313 38.1586 2.10469 40.2359 3.89062 41ZM24.2812 24.2812C25.2242 24.2563 26.4094 24.3961 27.4062 24.3594C28.4031 24.3227 29.7367 24.3258 30.6875 24.3594C31.6383 24.393 32.7312 24.1594 33.3258 24.4828C33.9203 24.8055 34.2648 25.1281 34.3281 25.8242C34.3922 26.5211 34.3859 28.1516 34.3594 28.9688C34.3328 29.7859 34.532 31.1898 34.1586 31.6852C33.7852 32.1805 33.5711 32.7297 32.7906 32.7125C32.0094 32.6953 30.5883 32.6242 29.6719 32.6406C28.7555 32.657 27.3094 32.6773 26.3906 32.6406C25.4719 32.6039 24.3023 32.832 23.7109 32.507C23.1195 32.1813 22.6805 31.9266 22.7133 31.15C22.7461 30.3742 22.6758 28.7344 22.7188 27.875C22.7617 27.0156 22.5719 25.8102 22.8117 25.2773C23.0516 24.7437 23.6836 24.2977 24.2812 24.2812Z" fill="#FB7901"/>
<path d="M13.6562 1H5.92188C4.14922 1.25469 4.25547 3.03828 3.78437 4.38281C3.31328 5.72656 3.03281 7.18437 2.62188 8.55859C2.21016 9.93281 1.775 11.3047 1.39062 12.7188C4.69766 12.7188 8.00547 12.7188 11.3125 12.7188C12.0656 8.75625 12.832 4.92422 13.6562 1Z" stroke="#FB7901"/>
<path d="M24.9062 1H17.0938C16.1633 4.88359 15.5414 8.77266 14.6719 12.7188C18.8422 12.5883 23.1555 12.5883 27.3281 12.7188C26.4562 8.76328 25.8359 4.87969 24.9062 1Z" stroke="#FB7901"/>
<path d="M36.2344 1H28.4219C29.0719 4.96406 29.9859 8.75781 30.6875 12.7188C33.9945 12.7188 37.3023 12.7188 40.6094 12.7188C40.2086 11.2625 39.7906 9.86016 39.3898 8.48047C38.9891 7.10156 38.6562 5.73047 38.2031 4.37891C37.7492 3.02656 37.8477 1.37109 36.2344 1Z" stroke="#FB7901"/>
<path d="M1 16.3125C1.06172 17.3977 1.83438 18.307 2.73828 18.9055C3.64219 19.5039 5.33984 19.3641 6.85938 19.3594C8.37891 19.3547 9.98672 19.4898 10.9414 18.9539C11.8961 18.418 12.5305 17.4273 12.6406 16.3906C12.8594 17.4711 13.3617 18.1883 14.3008 18.8273C15.2398 19.4664 16.5664 19.3664 18.1875 19.3594C19.8086 19.3523 22.1063 19.3516 23.7344 19.3594C25.3625 19.3672 26.7297 19.4688 27.6641 18.8352C28.5992 18.2008 29.1625 17.4891 29.3594 16.3906C29.4656 17.525 30.1336 18.3445 31.0977 18.9055C32.0625 19.4664 33.6227 19.4039 35.1406 19.3594C36.6586 19.3148 38.3891 19.5438 39.3008 18.9539C40.2133 18.3641 40.8219 17.4258 41 16.4688V14.3594C27.6664 14.3594 14.3336 14.3594 1 14.3594V16.3125Z" stroke="#FB7901"/>
<path d="M3.89062 41H7.71875C7.76484 39.2758 7.65781 37.3961 7.71875 35.6875C7.77969 33.9789 7.60156 32.0266 7.71875 30.375C7.83594 28.7234 7.45703 26.7766 7.73516 25.4352C8.01328 24.0938 9.425 24.3789 10.8438 24.3594C12.2625 24.3398 14.7047 24.3719 16.1562 24.3594C17.6078 24.3469 18.8703 24.143 19.218 25.4727C19.5656 26.8031 19.2945 28.6531 19.3594 30.2969C19.4242 31.9406 19.3258 33.8961 19.3594 35.6094C19.393 37.3227 19.3344 39.2656 19.3594 41H38.1875C39.0398 40.4297 39.3977 40.093 39.2812 38.7344C39.1648 37.3758 39.3305 35.6422 39.2812 34.2031C39.232 32.7641 39.2969 31.1445 39.2812 29.6719C39.2656 28.1992 39.2742 26.6211 39.2812 25.1406C39.2883 23.6602 39.2109 22.1352 39.3594 20.6875C37.8477 21.257 35.1086 20.9125 33.1875 21C31.2664 21.0875 30.5914 20.5789 29.2812 19.75C27.6094 21.4953 24.1117 20.9937 21 21C17.8883 21.0063 14.3797 21.4867 12.7188 19.75C11.3922 20.6523 10.5789 21.0883 8.65625 21C6.73359 20.9117 4.13672 21.2578 2.64062 20.6875C2.82891 23.0938 2.65859 25.8508 2.71875 28.2656C2.77891 30.6805 2.63437 33.5289 2.71875 35.8438C2.80313 38.1586 2.10469 40.2359 3.89062 41ZM24.2812 24.2812C25.2242 24.2563 26.4094 24.3961 27.4062 24.3594C28.4031 24.3227 29.7367 24.3258 30.6875 24.3594C31.6383 24.393 32.7312 24.1594 33.3258 24.4828C33.9203 24.8055 34.2648 25.1281 34.3281 25.8242C34.3922 26.5211 34.3859 28.1516 34.3594 28.9688C34.3328 29.7859 34.532 31.1898 34.1586 31.6852C33.7852 32.1805 33.5711 32.7297 32.7906 32.7125C32.0094 32.6953 30.5883 32.6242 29.6719 32.6406C28.7555 32.657 27.3094 32.6773 26.3906 32.6406C25.4719 32.6039 24.3023 32.832 23.7109 32.507C23.1195 32.1813 22.6805 31.9266 22.7133 31.15C22.7461 30.3742 22.6758 28.7344 22.7188 27.875C22.7617 27.0156 22.5719 25.8102 22.8117 25.2773C23.0516 24.7437 23.6836 24.2977 24.2812 24.2812Z" stroke="#FB7901"/>
</svg>
