<svg width="40" height="37" viewBox="0 0 40 37" fill="none" xmlns="http://www.w3.org/2000/svg">
<g clip-path="url(#clip0_1007_19064)">
<path d="M22.1125 3.82856L20.6375 0.44649C20.3938 -0.140774 19.6312 -0.162 19.3625 0.44649L17.8875 3.82856L14.6187 4.35922C14.0375 4.45828 13.7875 5.27196 14.2188 5.76017L16.5938 8.37809L16.0312 12.0644C15.9438 12.7224 16.5437 13.2319 17.0812 12.9276L20.0125 11.1729L22.925 12.8993C23.4625 13.2036 24.0688 12.6941 23.975 12.0361L23.4125 8.34979L25.7875 5.76017C26.2125 5.27904 25.9688 4.46536 25.3875 4.35922L22.1187 3.82856H22.1125ZM16 18.1139C14.8938 18.1139 14 19.1257 14 20.3781V33.963C14 35.2153 14.8938 36.2271 16 36.2271H24C25.1063 36.2271 26 35.2153 26 33.963V20.3781C26 19.1257 25.1063 18.1139 24 18.1139H16ZM2 22.6422C0.89375 22.6422 0 23.654 0 24.9064V33.963C0 35.2153 0.89375 36.2271 2 36.2271H10C11.1062 36.2271 12 35.2153 12 33.963V24.9064C12 23.654 11.1062 22.6422 10 22.6422H2ZM28 29.4347V33.963C28 35.2153 28.8937 36.2271 30 36.2271H38C39.1063 36.2271 40 35.2153 40 33.963V29.4347C40 28.1823 39.1063 27.1705 38 27.1705H30C28.8937 27.1705 28 28.1823 28 29.4347Z" fill="#FB7901"/>
</g>
<defs>
<clipPath id="clip0_1007_19064">
<rect width="40" height="36.2264" fill="white"/>
</clipPath>
</defs>
</svg>
