<svg width="35" height="30" viewBox="0 0 35 30" fill="none" xmlns="http://www.w3.org/2000/svg">
<path d="M33.8135 26.8868C31.6221 23.4646 28.2198 20.8122 24.1573 19.3585C26.1512 18.0042 27.624 16.116 28.3671 13.9614C29.1103 11.8069 29.0861 9.49517 28.2979 7.35378C27.5098 5.21238 25.9976 3.34986 23.9757 2.03004C21.9538 0.710213 19.5247 0 17.0323 0C14.5399 0 12.1108 0.710213 10.0889 2.03004C8.06696 3.34986 6.55483 5.21238 5.76668 7.35378C4.97853 9.49517 4.95431 11.8069 5.69745 13.9614C6.44059 16.116 7.91341 18.0042 9.9073 19.3585C5.84475 20.8122 2.44254 23.4646 0.251046 26.8868C0.00240579 27.2771 -0.0648463 27.7409 0.064085 28.1761C0.193016 28.6113 0.507569 28.9824 0.938546 29.2075C1.36952 29.4327 1.88162 29.4936 2.36218 29.3769C2.84274 29.2601 3.25241 28.9752 3.50105 28.5849C4.87248 26.4339 6.84492 24.6476 9.22014 23.4057C11.5954 22.1639 14.2897 21.5101 17.0323 21.5101C19.7749 21.5101 22.4692 22.1639 24.8445 23.4057C27.2197 24.6476 29.1921 26.4339 30.5636 28.5849C30.7294 28.8423 30.9666 29.0559 31.2516 29.2049C31.5366 29.3538 31.8595 29.4327 32.1885 29.434C32.5179 29.4363 32.8418 29.3581 33.126 29.2075C33.3396 29.0961 33.5267 28.9477 33.6768 28.7707C33.8269 28.5938 33.9371 28.3918 34.0009 28.1762C34.0648 27.9607 34.0811 27.7359 34.0489 27.5146C34.0168 27.2934 33.9368 27.08 33.8135 26.8868ZM8.9073 10.7547C8.9073 9.29935 9.38382 7.87666 10.2766 6.66656C11.1694 5.45646 12.4383 4.5133 13.923 3.95636C15.4076 3.39941 17.0413 3.25369 18.6174 3.53762C20.1935 3.82155 21.6412 4.52237 22.7775 5.55148C23.9138 6.58058 24.6877 7.89174 25.0012 9.31915C25.3147 10.7466 25.1538 12.2261 24.5388 13.5707C23.9239 14.9153 22.8825 16.0645 21.5463 16.8731C20.2102 17.6816 18.6393 18.1132 17.0323 18.1132C14.8774 18.1132 12.8108 17.3379 11.2871 15.958C9.76332 14.578 8.9073 12.7063 8.9073 10.7547Z" fill="#FB7901"/>
</svg>
