<svg width="1070" height="654" viewBox="0 0 1070 654" fill="none" xmlns="http://www.w3.org/2000/svg">
<path d="M43.0015 -365.708C-33.4075 -450.734 10.6528 -523.472 42.2341 -549.212L494.642 -959.442L1972.34 345.46L1858.68 531.201C1830.34 559.8 1749.64 600.185 1653.62 532.943C1533.59 448.891 1493.61 490.365 1442.37 507.282C1391.14 524.199 1048.98 697.468 924.548 642.388C803.074 588.616 781.029 456.047 646.722 454.453C539.276 453.179 479.969 411.41 460.34 394.077C440.712 376.744 393.254 324.232 390.406 228.11C386.847 107.958 287.361 36.5601 167.547 -19.8807C47.7325 -76.3215 56.2484 -130.962 74.4733 -177.03C92.6981 -223.097 138.513 -259.426 43.0015 -365.708Z" fill="black"/>
<path d="M43.0015 -365.708C-33.4075 -450.734 10.6528 -523.472 42.2341 -549.212L494.642 -959.442L1972.34 345.46L1858.68 531.201C1830.34 559.8 1749.64 600.185 1653.62 532.943C1533.59 448.891 1493.61 490.365 1442.37 507.282C1391.14 524.199 1048.98 697.468 924.548 642.388C803.074 588.616 781.029 456.047 646.722 454.453C539.276 453.179 479.969 411.41 460.34 394.077C440.712 376.744 393.254 324.232 390.406 228.11C386.847 107.958 287.361 36.5601 167.547 -19.8807C47.7325 -76.3215 56.2484 -130.962 74.4733 -177.03C92.6981 -223.097 138.513 -259.426 43.0015 -365.708Z" fill="url(#paint0_linear_272_1617)"/>
<defs>
<linearGradient id="paint0_linear_272_1617" x1="454.869" y1="-923.548" x2="1270.81" y2="1251.15" gradientUnits="userSpaceOnUse">
<stop stop-color="#ED374D"/>
<stop offset="0.505208" stop-color="#FA793F"/>
<stop offset="1" stop-color="#F7F651"/>
</linearGradient>
</defs>
</svg>
