<svg width="380" height="727" viewBox="0 0 380 727" fill="none" xmlns="http://www.w3.org/2000/svg">
<path d="M101.043 12.5548C46.7324 -14.3389 -3.1094 8.60083 -50.3803 46.5263C-136.634 115.728 -201.086 216.069 -227.885 314.296C-254.683 412.523 -229.615 500.739 -193.072 563.41C-137.681 658.409 -117.026 669.814 -34.5121 700.533C25.7131 722.954 60.5659 729.722 143.837 726.007C227.108 722.292 363.175 706.446 378.803 601.632C391.175 518.662 254.727 431.066 254.727 431.066C254.727 431.066 190.213 392.261 163.757 341.928C136.375 289.834 148.587 191.994 148.587 191.994C148.587 191.994 166.007 44.7245 101.043 12.5548Z" fill="#E2AA4F"/>
</svg>
