<svg width="1920" height="1815" viewBox="0 0 1920 1815" fill="none" xmlns="http://www.w3.org/2000/svg">
<path d="M-76.8711 1464.45C-79.0641 1497.2 -54.1103 1565.4 62.7307 1576.11C186.083 1587.43 202.438 1622.63 218.018 1656.16C220.885 1662.33 223.726 1668.45 227.203 1674.35C249.571 1712.3 285.097 1750.25 410.096 1720.11C535.094 1689.97 657.462 1679.93 750.882 1751.37C825.618 1808.53 897.964 1815 924.565 1815C951.165 1815 1023.51 1808.53 1098.25 1751.37C1191.67 1679.93 1314.03 1689.97 1439.03 1720.11C1564.03 1750.25 1599.56 1712.3 1621.93 1674.35C1625.4 1668.45 1628.24 1662.33 1631.11 1656.16C1646.69 1622.63 1663.05 1587.43 1786.4 1576.11C1903.24 1565.4 1928.06 1497.23 1925.87 1464.48V0H1924.27C1916.78 34.9248 1883.11 83.1602 1786.4 92.0309C1663.05 103.345 1646.69 138.547 1631.11 172.081C1628.24 178.252 1625.4 184.366 1621.93 190.265C1599.56 228.219 1564.03 266.173 1439.03 236.033C1314.03 205.893 1191.67 195.846 1098.25 267.289C1023.51 324.443 951.165 330.918 924.565 330.918C897.964 330.918 825.618 324.443 750.882 267.289C657.462 195.846 535.094 205.893 410.096 236.033C285.097 266.173 249.571 228.219 227.203 190.265C223.726 184.366 220.885 178.252 218.018 172.081C202.438 138.547 186.083 103.345 62.7307 92.0309C-33.9851 83.1602 -67.653 34.9248 -75.138 0H-76.7417L-76.8711 1464.45Z" fill="#ECECEC"/>
</svg>
