<svg width="33" height="30" viewBox="0 0 33 30" fill="none" xmlns="http://www.w3.org/2000/svg">
<path fill-rule="evenodd" clip-rule="evenodd" d="M0.96875 3C0.96875 2.20435 1.31774 1.44129 1.93896 0.878682C2.56017 0.316073 3.40272 2.53371e-06 4.28125 2.53371e-06H7.59375C8.19662 2.53371e-06 8.76306 0.145502 9.25 0.402002C9.75325 0.13801 10.3247 -0.000683633 10.9062 2.53371e-06H14.2187C15.4228 2.53371e-06 16.4779 0.582003 17.0576 1.4535C17.4054 1.2015 17.8128 1.0095 18.2699 0.898502L21.4698 0.123003C21.89 0.020917 22.3283 -0.00519838 22.7597 0.0461483C23.191 0.097495 23.607 0.225298 23.9838 0.422258C24.3606 0.619217 24.6909 0.881475 24.9558 1.19405C25.2207 1.50663 25.415 1.86341 25.5276 2.244L32.3845 25.4265C32.4972 25.8071 32.5261 26.204 32.4694 26.5947C32.4127 26.9853 32.2715 27.3621 32.0541 27.7033C31.8366 28.0446 31.547 28.3437 31.2019 28.5836C30.8567 28.8235 30.4628 28.9995 30.0426 29.1015L26.8427 29.877C26.4225 29.9791 25.9842 30.0052 25.5528 29.9538C25.1214 29.9025 24.7055 29.7747 24.3287 29.5777C23.9518 29.3808 23.6216 29.1185 23.3567 28.8059C23.0918 28.4934 22.8975 28.1366 22.7849 27.756L17.5312 9.9945V27C17.5312 27.7956 17.1823 28.5587 16.561 29.1213C15.9398 29.6839 15.0973 30 14.2187 30H10.9062C10.3247 30.0007 9.75325 29.862 9.25 29.598C8.74675 29.862 8.17532 30.0007 7.59375 30H4.28125C3.40272 30 2.56017 29.6839 1.93896 29.1213C1.31774 28.5587 0.96875 27.7956 0.96875 27V3ZM4.28125 3H7.59375V27H4.28125V3ZM14.2187 27H10.9062V3H14.2187V27ZM19.1262 3.7965L22.3261 3.021L29.1863 26.2035L25.9864 26.979L19.1262 3.7965Z" fill="#000000"/>
</svg>
