<svg width="1403" height="577" viewBox="0 0 1403 577" fill="none" xmlns="http://www.w3.org/2000/svg">
<path d="M27.2989 -771.553C-32.8956 -866.917 22.6545 -933.477 57.954 -954.837L570.726 -1302.23L1792.94 203.212L1280.17 550.609C1247.54 575.266 1161.69 604.503 1079.27 524.199C976.239 423.818 930.022 459.73 877.007 469.583C823.991 479.437 762.945 479.399 717.917 364.254C672.889 249.109 608.627 150.062 477.515 130.034C372.625 114.011 321.757 64.1752 305.522 44.1784C289.288 24.1816 251.85 -34.7531 265.515 -131.095C282.597 -251.523 197.495 -336.452 89.9473 -409.241C-17.6001 -482.029 0.0819681 -535.404 25.7944 -578.888C51.5068 -622.372 102.542 -652.348 27.2989 -771.553Z" fill="black"/>
<path d="M27.2989 -771.553C-32.8956 -866.917 22.6545 -933.477 57.954 -954.837L570.726 -1302.23L1792.94 203.212L1280.17 550.609C1247.54 575.266 1161.69 604.503 1079.27 524.199C976.239 423.818 930.022 459.73 877.007 469.583C823.991 479.437 762.945 479.399 717.917 364.254C672.889 249.109 608.627 150.062 477.515 130.034C372.625 114.011 321.757 64.1752 305.522 44.1784C289.288 24.1816 251.85 -34.7531 265.515 -131.095C282.597 -251.523 197.495 -336.452 89.9473 -409.241C-17.6001 -482.029 0.0819681 -535.404 25.7944 -578.888C51.5068 -622.372 102.542 -652.348 27.2989 -771.553Z" fill="url(#paint0_linear_272_1616)"/>
<defs>
<linearGradient id="paint0_linear_272_1616" x1="114.802" y1="-881.603" x2="1178.05" y2="1070.72" gradientUnits="userSpaceOnUse">
<stop stop-color="#ED374D"/>
<stop offset="0.505208" stop-color="#FA793F"/>
<stop offset="1" stop-color="#F7F651"/>
</linearGradient>
</defs>
</svg>
