<svg width="1401" height="638" viewBox="0 0 1401 638" fill="none" xmlns="http://www.w3.org/2000/svg">
<path d="M78.6526 -140.119C-23.67 -199.784 -4.46119 -279.512 17.9335 -311.918L325.184 -815.025L2193.1 20.7132L1885.85 523.82C1867.55 558.056 1802.03 617.065 1686.39 579.209C1541.83 531.89 1516.38 581.247 1471.93 610.534C1427.48 639.821 1370.76 663.617 1272.9 580.782C1175.03 497.946 1067.14 436.656 935.606 470.37C830.378 497.341 758.874 473.738 734.063 462.636C709.251 451.535 645.795 414.755 611.604 325.406C568.866 213.719 448.485 172.876 313.163 151.381C177.841 129.887 168.291 76.4388 171.014 28.482C173.737 -19.4747 206.556 -65.5369 78.6526 -140.119Z" fill="black"/>
<path d="M78.6526 -140.119C-23.67 -199.784 -4.46119 -279.512 17.9335 -311.918L325.184 -815.025L2193.1 20.7132L1885.85 523.82C1867.55 558.056 1802.03 617.065 1686.39 579.209C1541.83 531.89 1516.38 581.247 1471.93 610.534C1427.48 639.821 1370.76 663.617 1272.9 580.782C1175.03 497.946 1067.14 436.656 935.606 470.37C830.378 497.341 758.874 473.738 734.063 462.636C709.251 451.535 645.795 414.755 611.604 325.406C568.866 213.719 448.485 172.876 313.163 151.381C177.841 129.887 168.291 76.4388 171.014 28.482C173.737 -19.4747 206.556 -65.5369 78.6526 -140.119Z" fill="url(#paint0_linear_272_1615)"/>
<defs>
<linearGradient id="paint0_linear_272_1615" x1="-789.755" y1="-327.37" x2="1288.03" y2="741.839" gradientUnits="userSpaceOnUse">
<stop stop-color="#ED374D"/>
<stop offset="0.505208" stop-color="#FA793F"/>
<stop offset="1" stop-color="#F7F651"/>
</linearGradient>
</defs>
</svg>
