<svg width="1539" height="561" viewBox="0 0 1539 561" fill="none" xmlns="http://www.w3.org/2000/svg">
<path opacity="0.02" d="M125.652 6.21552C-7.79468 -35.7651 -9.05474 -128.056 6.99609 -168.953L210.279 -794.514L2573.03 -307.383L2369.75 318.178C2358.87 360.143 2301.55 440.357 2159.3 425.494C1981.47 406.917 1966.85 467.199 1924.86 509.78C1882.86 552.362 1825.34 591.743 1690.25 523.201C1555.17 454.66 1414.93 412.183 1275.33 479.854C1163.65 533.99 1075.64 524.584 1044.25 518.114C1012.87 511.643 930.173 485.853 865.497 395.358C784.651 282.238 636.147 265.184 476.277 272.914C316.406 280.644 290.097 223.98 279.311 170.516C268.526 117.053 292.461 58.6913 125.652 6.21552Z" fill="black"/>
</svg>
