<svg width="1920" height="1066" viewBox="0 0 1920 1066" fill="none" xmlns="http://www.w3.org/2000/svg">
<path d="M-356.762 940.645C-622.043 951.026 -684.64 879.555 -682.778 842.522L-721.576 384.044L3807.86 0.747807L3846.66 459.226C3854.72 495.42 3805.02 576.393 3541.77 610.739C3212.7 653.671 3226.07 705.339 3179.07 752.058C3132.07 798.778 3055.31 848.015 2769.74 838.239C2484.17 828.463 2206.45 840.65 2001.92 938.414C1838.29 1016.63 1675.27 1037.71 1615.11 1042.8C1554.94 1047.89 1390.7 1054.5 1216.26 1004.9C998.204 942.896 722.388 977.55 442.522 1035.18C162.656 1092.8 78.7131 1057.16 24.5303 1019.01C-29.6526 980.849 -25.1603 927.669 -356.762 940.645Z" fill="#1D1534"/>
</svg>
