<svg width="42" height="42" viewBox="0 0 42 42" fill="none" xmlns="http://www.w3.org/2000/svg">
<path d="M8.96895 1H8.65645C7.65489 1.13359 7.77676 1.95313 7.46192 2.53907C7.14707 3.125 7.13379 3.6461 6.76582 4.26172C6.39786 4.87735 7.02911 5.51173 7.69942 6.09766C8.36973 6.68282 8.8963 7.33751 9.53536 7.93361C10.1744 8.5297 10.7455 9.17345 11.3713 9.76955C11.9979 10.3649 12.5369 10.9899 13.1877 11.5469C13.1369 10.5313 13.7026 9.63439 13.7072 8.71095C13.7119 7.78673 14.3635 6.69063 14.0143 5.82579C13.6643 4.96094 12.276 4.09141 11.5666 3.2461C10.8572 2.40078 9.77442 1.34297 8.96895 1Z" fill="black" fill-opacity="0.98" stroke="black"/>
<path d="M20.0624 41.0008H23.1874C28.1234 40.236 31.5492 39.1086 35.3164 35.3172C39.0836 31.5258 40.2508 28.1336 41 23.1883V20.0633C40.6976 17.0492 39.6476 14.4234 38.5148 12.2703C37.3828 10.1172 34.5937 6.92498 32.1914 5.46873C29.789 4.01325 27.8187 3.1406 24.5742 2.59372C21.3296 2.04763 17.6617 2.58903 15.1406 3.50075C17.3023 5.31873 16.0718 7.97732 15.7656 10.2976C17.7242 9.32654 21.0546 8.33982 23.8671 8.99217C26.6789 9.64373 28.4484 10.3508 30.6679 12.5047C32.8875 14.6586 33.6875 16.5476 34.3437 19.3406C35 22.1336 34.1468 25.2578 33.1976 27.4133C32.2484 29.5688 29.5265 32.1563 27.4296 33.1328C25.3335 34.1094 22.0499 35.025 19.3007 34.3414C16.5507 33.6578 14.5249 32.8336 12.3866 30.5516C10.2491 28.2688 9.65852 26.6813 8.9843 23.8328C8.30929 20.9844 9.3593 17.7422 10.2968 15.7664C7.99289 16.0773 5.28351 17.2852 3.49991 15.1414C2.50772 17.6953 2.10694 21.4688 2.62491 24.6531C3.14366 27.8375 4.0296 29.7938 5.48663 32.1906C6.94367 34.5875 10.064 37.3703 12.2679 38.5336C14.4718 39.6977 17.0249 40.6586 20.0624 41.0008Z" fill="black" fill-opacity="0.99" stroke="black"/>
<path d="M1 8.65695V8.96945C1.40156 9.76008 2.47266 10.8351 3.32422 11.5671C4.17657 12.2984 5.0211 13.632 5.8672 13.9976C6.71251 14.364 7.86329 13.6874 8.75392 13.6773C9.64455 13.6679 10.5727 13.1632 11.5469 13.1882C10.9883 12.5304 10.3305 11.9695 9.73048 11.3327C9.13126 10.696 8.49142 10.1499 7.89454 9.4968C7.29767 8.84445 6.6422 8.35617 6.0586 7.66086C5.47501 6.96476 4.83282 6.41476 4.22266 6.79757C3.6125 7.18039 3.07032 7.15539 2.49063 7.48039C1.91172 7.80461 1.13359 7.66164 1 8.65695Z" fill="black" fill-opacity="0.98" stroke="black"/>
<path d="M13.4219 15.1402C12.2532 17.0019 11.5118 18.1918 11.2852 20.6332C11.0578 23.0738 11.6008 25.2676 12.5524 26.8652C13.5039 28.4629 15.6289 30.5348 17.2305 31.2191C18.8313 31.9035 21.6235 32.5035 23.7165 31.9535C25.8094 31.4035 27.5485 30.8129 29.2227 28.9879C30.8962 27.1629 31.5837 25.6683 32.0626 23.4801C32.5423 21.2926 31.8188 18.6441 31.1235 17.0754C30.4274 15.5066 28.4344 13.4004 26.8399 12.5144C25.2462 11.6293 23.0079 11.0332 20.5899 11.2652C18.1727 11.4964 16.9813 12.3043 15.1407 13.4215C15.9415 14.5199 17.1368 15.4058 18.0313 16.4683C19.404 15.3293 22.1165 15.0363 23.9883 15.8121C25.861 16.5879 27.4907 18.1019 27.9219 20.316C28.354 22.5301 27.6157 24.8238 26.1368 26.2926C24.6579 27.7613 22.4235 28.2926 20.2251 27.8691C18.0266 27.4465 16.6454 25.8394 15.8211 23.9918C14.9977 22.1449 15.3485 19.3832 16.4688 18.0308C15.411 17.1402 14.5219 15.9425 13.4219 15.1402Z" fill="black" fill-opacity="0.99" stroke="black"/>
<path d="M18.1094 19.8273C16.9423 22.2437 18.3696 25.2 21.0587 25.6242C23.7485 26.0484 26.1305 23.632 25.6696 20.939C25.2087 18.2461 22.1087 17.0109 19.8282 18.1086C20.6805 19.4523 23.9696 21.1172 22.543 22.5422C21.1165 23.9672 19.5188 20.5547 18.1094 19.8273Z" fill="black" fill-opacity="0.98" stroke="black"/>
</svg>
