<svg width="42" height="42" viewBox="0 0 42 42" fill="none" xmlns="http://www.w3.org/2000/svg">
<path d="M1 18.3438V23.4219C1.24141 24.8445 3.00781 24.5836 3.96875 24.9844C4.1 26.3547 4.70469 27.4125 5.14062 28.5781C5.93203 27.7133 6.69844 26.982 7.58203 26.1758C8.46562 25.3695 9.09453 24.5156 10.043 23.7148C10.9922 22.9141 10.4609 22.0922 10.4547 21.0758C10.4484 20.0602 10.6195 18.9133 10.8938 18.0547C11.1687 17.1969 11.3578 16.5633 11.7961 15.8242C12.2344 15.0844 12.7008 14.3711 13.4289 13.6625C14.1562 12.9539 14.8719 12.3125 15.6328 11.8828C16.3945 11.4531 17.1359 11.1766 17.9727 10.8625C18.8086 10.5492 19.6602 10.5875 20.6938 10.5258C21.7266 10.4633 22.8984 10.5641 23.7148 10.8125C24.5312 11.0617 25.1914 11.2492 25.9039 11.6703C26.6164 12.0906 27.2828 12.4219 28.0508 13.1242C28.8188 13.8273 29.5094 14.6508 29.9164 15.3687C30.3234 16.0867 30.7203 16.6766 30.9773 17.5078C31.2344 18.3383 31.4516 19.2 31.5305 20.1586C31.6086 21.1172 31.4883 22.4 31.2977 23.2852C31.1062 24.1695 30.7852 25.0102 30.3977 25.7109C30.0094 26.4117 29.7258 27.1031 29.0492 27.8773C28.3727 28.6523 27.4477 29.4492 26.7617 29.8867C26.075 30.3242 25.4141 30.5617 24.6172 30.8938C23.8203 31.2258 22.9117 31.3172 21.9961 31.4062C21.0805 31.4953 19.7578 31.6187 18.8906 31.3125C17.1195 33.2008 15.1891 34.975 13.4219 36.8594C14.5266 37.2648 15.6508 37.9172 17.0156 38.0312C17.3969 39.0094 17.2242 40.4992 18.3438 41H23.7344C24.6406 40.507 24.7398 39.0406 24.9062 38.1094C26.9141 37.6453 28.6266 37.0039 30.1406 35.9219C31.225 35.9617 31.8844 37.6273 33.1031 36.9273C34.3211 36.2273 34.9023 34.7898 36.2148 33.8711C37.5273 32.9523 36.8664 31.6688 36.25 30.8242C35.6336 29.9797 36.7695 28.9891 37.0305 28.0898C37.2914 27.1898 38.032 26.0891 38.1094 24.9062C39.0578 24.6656 40.7781 24.7742 41 23.4219V18.3438C40.5742 17.3109 39.0187 17.2992 38.1094 17.0938C38.0625 15.932 37.2422 14.8289 37.0836 13.975C36.925 13.1211 35.593 12.0805 36.1086 11.2539C36.625 10.4266 37.6414 9.14766 36.293 8.20703C34.9453 7.26641 34.3992 5.88984 33.2055 5.09609C32.0117 4.30234 31.2367 5.86484 30.375 6.15625C28.6781 5.10625 27.0484 4.35234 24.9062 3.89062C24.6797 2.94141 24.7563 1.19453 23.4219 1H18.3438C17.218 1.51094 17.4016 2.97031 17.0156 3.96875C15.0211 4.26328 13.2617 5.17422 11.625 6.15625C10.9227 5.68984 10.3125 5.02578 9.43828 4.98359C8.56406 4.94219 7.66719 6.28047 6.91797 6.99609C6.16875 7.71172 4.83281 8.70234 4.97969 9.5875C5.12656 10.4719 5.72578 10.8742 6.15625 11.7031C5.13594 13.1977 4.3125 15.0039 3.96875 17.0156C3.00391 17.3898 1.50234 17.2227 1 18.3438Z" fill="black" stroke="black"/>
<path d="M1 37.1724V38.0318C1.33125 39.5208 2.45391 40.631 3.89062 41.0005H5.21875C6.09688 40.6919 6.75469 40.2794 7.62109 39.3404C8.48828 38.4013 9.4 37.5935 10.2773 36.6841C11.1555 35.7755 12.05 34.9224 12.9336 34.0279C13.8172 33.1333 14.7016 32.2576 15.5898 31.3716C16.4781 30.4857 17.3461 29.5802 18.2656 28.7349C19.0305 28.981 19.7594 29.174 20.6703 29.1865C21.5812 29.199 22.6984 29.1201 23.4453 28.863C24.1922 28.606 24.7984 28.4099 25.393 28.0505C25.9875 27.6904 26.8992 26.8341 27.4867 26.1591C28.0742 25.4849 28.1859 24.9052 28.532 24.2623C28.8781 23.6201 28.9914 22.7998 29.1875 22.0357C29.3836 21.2708 29.032 19.9443 29.0156 19.2623C29 18.581 28.2602 17.6794 27.4781 18.0216C26.6953 18.3638 26.1844 19.3419 25.3555 20.0435C24.5273 20.7451 24.0586 21.456 23.207 21.5662C22.3555 21.6771 21.6383 21.631 21.0586 21.0201C20.4789 20.4099 20.2391 19.6919 20.3914 18.831C20.5445 17.9701 21.3125 17.5248 22.0352 16.7232C22.757 15.9208 23.6508 15.3638 23.9586 14.5099C24.2664 13.6552 23.4523 13.0912 22.7383 13.0162C22.0242 12.9412 20.868 12.6646 20.0039 12.8162C19.1391 12.9677 18.4992 13.1982 17.8164 13.4857C17.1328 13.7724 16.5953 14.0037 15.9414 14.5794C15.2883 15.156 14.4797 15.9146 14.0672 16.5669C13.6555 17.2193 13.4797 17.838 13.1594 18.6021C12.8398 19.3669 12.993 20.3818 12.8227 21.3388C12.6523 22.2958 13.5562 23.131 13.1289 23.9107C12.7016 24.6896 11.5422 25.3419 10.9414 26.0982C10.3406 26.8544 9.39141 27.5771 8.71484 28.3248C8.03828 29.0724 7.19688 29.8091 6.48828 30.5513C5.77891 31.2935 5.02578 31.9974 4.30078 32.7388C3.57578 33.4794 2.80625 34.2216 2.07578 34.9669C1.34531 35.7123 1.23906 36.1708 1 37.1724Z" fill="black" stroke="black"/>
</svg>
