<svg width="40" height="37" viewBox="0 0 40 37" fill="none" xmlns="http://www.w3.org/2000/svg">
<path d="M39.2942 19.6499L30.8954 27.2564C30.672 27.458 30.4069 27.6178 30.1152 27.7265C29.8236 27.8353 29.5111 27.8909 29.1957 27.8902C28.5595 27.8877 27.9496 27.6603 27.4959 27.2564C27.2722 27.0545 27.0947 26.8145 26.9736 26.5504C26.8525 26.2862 26.7902 26.003 26.7902 25.717C26.7902 25.4309 26.8525 25.1477 26.9736 24.8835C27.0947 24.6194 27.2722 24.3795 27.4959 24.1776L31.7953 20.2838H15.1978C14.5613 20.2838 13.951 20.0548 13.501 19.6473C13.0509 19.2397 12.7981 18.6869 12.7981 18.1105C12.7981 17.5341 13.0509 16.9814 13.501 16.5738C13.951 16.1662 14.5613 15.9373 15.1978 15.9373H31.7953L27.4959 12.0435C27.0451 11.6352 26.7919 11.0815 26.7919 10.5041C26.7919 9.92672 27.0451 9.37299 27.4959 8.96472C27.9468 8.55644 28.5582 8.32708 29.1957 8.32708C29.8332 8.32708 30.4446 8.55644 30.8954 8.96472L39.2942 16.5711C39.5179 16.773 39.6954 17.013 39.8165 17.2771C39.9377 17.5413 40 17.8245 40 18.1105C40 18.3966 39.9377 18.6798 39.8165 18.9439C39.6954 19.2081 39.5179 19.448 39.2942 19.6499ZM15.1978 31.8745H4.79929V4.34653H15.1978C15.8342 4.34653 16.4445 4.11756 16.8946 3.70999C17.3446 3.30243 17.5974 2.74965 17.5974 2.17326C17.5974 1.59688 17.3446 1.0441 16.8946 0.636534C16.4445 0.228968 15.8342 0 15.1978 0H3.99941C2.94032 0.00476026 1.92611 0.387902 1.17721 1.06615C0.428309 1.7444 0.00525612 2.66293 0 3.62211V32.599C0.00525612 33.5581 0.428309 34.4767 1.17721 35.1549C1.92611 35.8332 2.94032 36.2163 3.99941 36.2211H15.1978C15.8342 36.2211 16.4445 35.9921 16.8946 35.5845C17.3446 35.177 17.5974 34.6242 17.5974 34.0478C17.5974 33.4714 17.3446 32.9186 16.8946 32.5111C16.4445 32.1035 15.8342 31.8745 15.1978 31.8745Z" fill="#FF3E41"/>
</svg>
