<svg width="42" height="41" viewBox="0 0 42 41" fill="none" xmlns="http://www.w3.org/2000/svg">
<path d="M6.85938 4.67188C6.76094 4.82266 6.625 4.97734 6.46875 5.0625C6.28281 5.14375 6.18828 5.36641 6 5.45312C5.85234 5.65781 5.66016 5.8625 5.45312 6C5.38984 6.15938 5.19766 6.23203 5.14062 6.39062C2.68984 9.11719 1.21328 12.5727 1.07812 16.2344C1.0375 16.4055 1.16719 16.6734 1 16.7812V17.5625C1.17266 17.8297 1.03281 18.2516 1.07812 18.5781C1.67188 26.4508 8.82578 33.4188 16.8594 33.2656C17.068 33.2656 17.2758 33.2656 17.4844 33.2656C17.6406 33.2656 17.7969 33.2656 17.9531 33.2656C18.057 33.1508 18.4016 33.132 18.5 33.2656C21.2992 32.9836 23.9992 32.0711 26.3125 30.4531C29.4641 33.175 32.6055 36.6281 35.6875 39.6719C36.2141 40.0687 36.7969 40.4086 37.4844 40.375C37.693 40.375 37.9008 40.375 38.1094 40.375C39.5406 40.3664 40.682 39.075 41 37.7969V36.5469C40.7844 36.0617 40.65 35.4688 40.2188 35.0625C37.1461 31.9508 33.6625 28.7797 30.9219 25.6094C32.2703 23.4133 33.1453 20.9469 33.2656 18.3438C33.2656 18.2133 33.2656 18.0836 33.2656 17.9531C33.2656 17.8227 33.2656 17.693 33.2656 17.5625C33.3164 17.1328 33.1625 16.5992 33.3438 16.2344C33.1086 12.5266 31.6398 9.00859 29.125 6.23438C28.8672 6.03594 28.6125 5.78984 28.4219 5.53125C25.5633 2.85391 21.9273 1.19375 18.0312 1C17.4586 1 16.8852 1 16.3125 1C12.8375 1.17734 9.56875 2.50469 6.85938 4.67188ZM17.7188 6.23438C20.275 6.36953 22.6852 7.40078 24.5938 9.125C24.8781 9.34922 25.1586 9.62187 25.375 9.90625C27.0273 11.7578 27.925 14.0984 28.1094 16.5469C28.1094 16.9117 28.1094 17.2758 28.1094 17.6406C27.9539 22.8852 23.4781 27.5859 18.2656 28.0312C18.1352 28.0312 18.0055 28.0312 17.875 28.0312C17.4062 28.0312 16.9375 28.0312 16.4688 28.0312C16.3125 28.0312 16.1562 28.0312 16 28.0312C13.8305 27.7469 11.75 26.8953 10.0625 25.4531C9.69922 25.1523 9.34219 24.7992 9.04688 24.4375C7.43359 22.5148 6.34297 20.1867 6.3125 17.6406C6.17578 17.5758 6.26094 17.3719 6.23438 17.25C6.28281 16.9719 6.34375 16.6906 6.3125 16.3906C6.20391 16.3328 6.18359 16.0531 6.3125 16C6.57734 13.6898 7.52734 11.4898 9.125 9.75C9.29766 9.51875 9.51719 9.28906 9.75 9.125C11.6953 7.36484 14.157 6.30547 16.7812 6.23438C17.0109 6.11172 17.4945 6.10078 17.7188 6.23438Z" fill="black" stroke="black"/>
</svg>
