<svg width="30" height="42" viewBox="0 0 30 42" fill="none" xmlns="http://www.w3.org/2000/svg">
<path d="M9.75 2.95312C9.57734 3.18438 9.35781 3.41406 9.125 3.57812C7.92891 4.89219 7.22031 6.57031 7.17188 8.34375C7.17188 12.693 7.17188 17.0414 7.17188 21.3906C7.22578 23.1766 7.96719 24.8094 9.125 26.1562C9.43594 26.4055 9.74141 26.7055 9.98438 27.0156C11.225 27.9672 12.6867 28.6469 14.2812 28.6562C14.6195 28.6562 14.9586 28.6562 15.2969 28.6562C17.0555 28.6453 18.7273 27.8961 19.9844 26.7031C20.132 26.4984 20.3242 26.2938 20.5312 26.1562C21.7391 24.8828 22.4984 23.1758 22.4844 21.3906C22.4844 17.0414 22.4844 12.693 22.4844 8.34375C22.5094 6.54453 21.7828 4.86094 20.5312 3.57812C20.3 3.40547 20.0703 3.18594 19.9062 2.95312C18.7891 1.85 17.2672 1.36875 15.8438 1H14.6719C12.8953 1.10078 11.0898 1.67734 9.75 2.95312Z" fill="black" stroke="black"/>
<path d="M1.70312 16.6237C1.58047 16.8019 1.41641 16.9808 1.23438 17.0925C1.09531 17.3073 1.0625 17.5573 1 17.7956C1 18.9151 1 20.0354 1 21.155C1.02734 24.5261 2.27266 27.7097 4.51562 30.2175C4.98359 30.6222 5.44453 31.08 5.84375 31.5456C7.92891 33.3737 10.5359 34.4745 13.2656 34.7487C13.3953 35.7323 13.3961 36.9737 13.2656 37.9519C11.182 37.9519 9.09922 37.9519 7.01562 37.9519C5.32578 38.0175 5.19922 40.5347 6.70312 40.9987H22.9531C24.4633 40.562 24.3695 38.1081 22.7188 37.9519C20.6094 37.9519 18.5 37.9519 16.3906 37.9519C16.2609 36.9683 16.2602 35.7269 16.3906 34.7487C19.2227 34.4565 21.9609 33.2956 24.0469 31.3112C24.3734 30.9214 24.7531 30.5386 25.1406 30.2175C27.4125 27.7667 28.7195 24.5433 28.6562 21.155C28.6562 20.0354 28.6562 18.9151 28.6562 17.7956C28.675 17.5675 28.5891 17.3675 28.5 17.1706C28.2953 17.0229 28.0906 16.8308 27.9531 16.6237C27.4328 16.3394 26.8305 16.3386 26.3125 16.6237C26.1898 16.8019 26.0258 16.9808 25.8438 17.0925C25.7984 17.3636 25.5945 17.587 25.6094 17.8737C25.6094 18.9933 25.6094 20.1136 25.6094 21.2331C25.6094 21.337 25.6094 21.4417 25.6094 21.5456C25.5688 21.7167 25.6984 21.9847 25.5312 22.0925C25.4062 24.4472 24.3164 26.6089 22.7188 28.3425C22.5711 28.5472 22.3789 28.7519 22.1719 28.8894C20.2914 30.6558 17.8672 31.705 15.2969 31.78C14.9844 31.78 14.6719 31.78 14.3594 31.78C11.8195 31.7065 9.43906 30.6823 7.5625 28.9675C7.38672 28.8026 6.96094 28.5323 7.01562 28.3425C5.34922 26.6347 4.35 24.4276 4.125 22.0925C4.01016 21.9886 3.99141 21.644 4.125 21.5456C4.125 21.4417 4.125 21.337 4.125 21.2331C3.94375 20.1839 4.09844 18.9815 4.04688 17.8737C4.07266 17.619 3.99688 17.3886 3.89062 17.1706C3.68594 17.0229 3.48125 16.8308 3.34375 16.6237C2.82344 16.3394 2.22109 16.3386 1.70312 16.6237Z" fill="black" stroke="black"/>
</svg>
