2<svg width="1160" height="1815" viewBox="0 0 1160 1815" fill="none" xmlns="http://www.w3.org/2000/svg">
<path opacity="0.02" d="M295.314 733.547C161.867 691.566 160.607 599.275 176.658 558.378L379.941 -67.1834L2742.69 419.948L2539.41 1045.51C2528.53 1087.47 2471.22 1167.69 2328.96 1152.83C2151.13 1134.25 2136.51 1194.53 2094.52 1237.11C2052.52 1279.69 1995 1319.07 1859.92 1250.53C1724.83 1181.99 1584.59 1139.51 1444.99 1207.18C1333.32 1261.32 1245.3 1251.92 1213.91 1245.44C1182.53 1238.97 1099.84 1213.18 1035.16 1122.69C954.313 1009.57 805.809 992.516 645.939 1000.25C486.068 1007.97 459.759 951.311 448.973 897.847C438.188 844.384 462.123 786.022 295.314 733.547Z" fill="black"/>
<path d="M386.315 587.214C283.992 527.549 303.201 447.821 325.596 415.415L632.846 -87.6921L2500.76 748.046L2193.51 1251.15C2175.21 1285.39 2109.69 1344.4 1994.05 1306.54C1849.5 1259.22 1824.04 1308.58 1779.59 1337.87C1735.14 1367.15 1678.42 1390.95 1580.56 1308.11C1482.7 1225.28 1374.8 1163.99 1243.27 1197.7C1138.04 1224.67 1066.54 1201.07 1041.72 1189.97C1016.91 1178.87 953.457 1142.09 919.266 1052.74C876.528 941.052 756.147 900.209 620.825 878.714C485.503 857.22 475.954 803.772 478.676 755.815C481.399 707.858 514.218 661.796 386.315 587.214Z" fill="black"/>
<path d="M386.315 587.214C283.992 527.549 303.201 447.821 325.596 415.415L632.846 -87.6921L2500.76 748.046L2193.51 1251.15C2175.21 1285.39 2109.69 1344.4 1994.05 1306.54C1849.5 1259.22 1824.04 1308.58 1779.59 1337.87C1735.14 1367.15 1678.42 1390.95 1580.56 1308.11C1482.7 1225.28 1374.8 1163.99 1243.27 1197.7C1138.04 1224.67 1066.54 1201.07 1041.72 1189.97C1016.91 1178.87 953.457 1142.09 919.266 1052.74C876.528 941.052 756.147 900.209 620.825 878.714C485.503 857.22 475.954 803.772 478.676 755.815C481.399 707.858 514.218 661.796 386.315 587.214Z" fill="url(#paint0_linear_1572_2840)"/>
<path d="M332.962 -44.2217C272.767 -139.586 328.317 -206.146 363.617 -227.506L876.389 -574.903L2098.6 930.543L1585.83 1277.94C1553.21 1302.6 1467.35 1331.83 1384.93 1251.53C1281.9 1151.15 1235.68 1187.06 1182.67 1196.91C1129.65 1206.77 1068.61 1206.73 1023.58 1091.59C978.551 976.441 914.289 877.393 783.177 857.365C678.288 841.342 627.42 791.506 611.185 771.509C594.95 751.513 557.512 692.578 571.177 596.236C588.259 475.808 503.157 390.879 395.61 318.091C288.062 245.302 305.745 191.927 331.457 148.443C357.169 104.959 408.205 74.9835 332.962 -44.2217Z" fill="black"/>
<path d="M332.962 -44.2217C272.767 -139.586 328.317 -206.146 363.617 -227.506L876.389 -574.903L2098.6 930.543L1585.83 1277.94C1553.21 1302.6 1467.35 1331.83 1384.93 1251.53C1281.9 1151.15 1235.68 1187.06 1182.67 1196.91C1129.65 1206.77 1068.61 1206.73 1023.58 1091.59C978.551 976.441 914.289 877.393 783.177 857.365C678.288 841.342 627.42 791.506 611.185 771.509C594.95 751.513 557.512 692.578 571.177 596.236C588.259 475.808 503.157 390.879 395.61 318.091C288.062 245.302 305.745 191.927 331.457 148.443C357.169 104.959 408.205 74.9835 332.962 -44.2217Z" fill="url(#paint1_linear_1572_2840)"/>
<path d="M681.664 361.623C605.255 276.597 649.315 203.859 680.896 178.119L1133.3 -232.111L2611 1072.79L2497.35 1258.53C2469 1287.13 2388.3 1327.52 2292.28 1260.27C2172.26 1176.22 2132.27 1217.7 2081.03 1234.61C2029.8 1251.53 1687.64 1424.8 1563.21 1369.72C1441.74 1315.95 1419.69 1183.38 1285.38 1181.78C1177.94 1180.51 1118.63 1138.74 1099 1121.41C1079.37 1104.08 1031.92 1051.56 1029.07 955.441C1025.51 835.289 926.023 763.891 806.209 707.45C686.395 651.01 694.911 596.369 713.135 550.302C731.36 504.234 777.175 467.905 681.664 361.623Z" fill="black"/>
<path d="M681.664 361.623C605.255 276.597 649.315 203.859 680.896 178.119L1133.3 -232.111L2611 1072.79L2497.35 1258.53C2469 1287.13 2388.3 1327.52 2292.28 1260.27C2172.26 1176.22 2132.27 1217.7 2081.03 1234.61C2029.8 1251.53 1687.64 1424.8 1563.21 1369.72C1441.74 1315.95 1419.69 1183.38 1285.38 1181.78C1177.94 1180.51 1118.63 1138.74 1099 1121.41C1079.37 1104.08 1031.92 1051.56 1029.07 955.441C1025.51 835.289 926.023 763.891 806.209 707.45C686.395 651.01 694.911 596.369 713.135 550.302C731.36 504.234 777.175 467.905 681.664 361.623Z" fill="url(#paint2_linear_1572_2840)"/>
<defs>
<linearGradient id="paint0_linear_1572_2840" x1="-482.093" y1="399.963" x2="1595.69" y2="1469.17" gradientUnits="userSpaceOnUse">
<stop stop-color="#ED374D"/>
<stop offset="0.505208" stop-color="#FA793F"/>
<stop offset="1" stop-color="#F7F651"/>
</linearGradient>
<linearGradient id="paint1_linear_1572_2840" x1="420.465" y1="-154.272" x2="1483.71" y2="1798.05" gradientUnits="userSpaceOnUse">
<stop stop-color="#ED374D"/>
<stop offset="0.505208" stop-color="#FA793F"/>
<stop offset="1" stop-color="#F7F651"/>
</linearGradient>
<linearGradient id="paint2_linear_1572_2840" x1="1093.53" y1="-196.217" x2="1909.47" y2="1978.48" gradientUnits="userSpaceOnUse">
<stop stop-color="#ED374D"/>
<stop offset="0.505208" stop-color="#FA793F"/>
<stop offset="1" stop-color="#F7F651"/>
</linearGradient>
</defs>
</svg>
