<svg width="76" height="120" viewBox="0 0 76 120" fill="none" xmlns="http://www.w3.org/2000/svg">
<path d="M19.3434 82.5625C17.327 86.491 12.512 88.9941 8.1315 88.4031C5.59361 88.0555 3.61197 87.1168 1.87369 85.4828C1.33482 84.9439 0.848102 84.5615 0.813337 84.5963C0.743805 84.6658 11.104 111.418 11.921 113.261C13.92 117.745 16.5448 119.588 20.96 119.588C23.9846 119.588 25.9489 118.858 27.7393 117.015C29.5993 115.121 29.9817 114.112 32.2588 105.16C35.718 91.5842 37.6997 83.6229 37.6301 83.5533C37.6128 83.5186 37.2129 83.8141 36.7436 84.1965C35.5963 85.1525 34.2405 85.8652 32.6934 86.352C31.6504 86.6648 31.0247 86.7518 29.4776 86.7344C27.8262 86.7344 27.3743 86.6648 26.0706 86.1955C23.7413 85.3959 21.8987 84.04 20.3516 82.0063L19.917 81.4326L19.3434 82.5625Z" fill="#FC7A02"/>
<path d="M56.9361 42.0741C56.1155 43.6277 53.7421 45.8045 51.992 46.5945C50.1891 47.4001 48.6996 47.7124 46.8234 47.6456C44.0092 47.5455 41.4392 46.4453 39.4393 44.4782C38.8517 43.8833 38.3286 43.4299 38.2927 43.4634C38.1661 43.598 48.1341 71.9218 48.8602 73.5131C50.0536 76.1472 51.6322 77.734 53.9831 78.6352C55.4592 79.1921 58.5669 79.3548 60.147 78.9414C63.0616 78.1754 64.9649 76.5037 66.3585 73.5094C66.8113 72.5166 75.2976 43.7187 75.1413 43.7131C75.1065 43.7119 74.5544 44.0749 73.9297 44.5223C71.7535 46.0451 69.6082 46.6993 67.0371 46.6079C64.0665 46.5022 61.5487 45.4038 59.4675 43.2773C58.7968 42.5751 58.1117 41.7854 57.9479 41.5013C57.8008 41.2351 57.6351 41.0031 57.5824 41.0186C57.5303 41.0168 57.2524 41.4939 56.9361 42.0741Z" fill="#FC7A02"/>
<path d="M21.4421 2.01894C20.6773 3.60078 18.3827 5.86054 16.6618 6.7123C14.8888 7.58144 13.4113 7.94648 11.5339 7.94648C8.7179 7.94648 6.11048 6.93828 4.04192 5.04355C3.43352 4.46992 2.89466 4.03535 2.85989 4.07012C2.73821 4.20918 13.7068 32.1607 14.489 33.7252C15.7753 36.3152 17.4093 37.8449 19.7908 38.6619C21.2857 39.166 24.3972 39.2182 25.9617 38.7488C28.8472 37.8797 30.6898 36.1414 31.9761 33.0994C32.3933 32.0912 39.8505 3.00976 39.6941 3.00976C39.6593 3.00976 39.1204 3.39219 38.512 3.86152C36.3913 5.46074 34.2706 6.19082 31.698 6.19082C28.7255 6.19082 26.1702 5.18262 24.0148 3.13144C23.3195 2.45351 22.6068 1.68867 22.4329 1.41055C22.2765 1.1498 22.1027 0.923826 22.0505 0.941209C21.9984 0.941209 21.7376 1.42793 21.4421 2.01894Z" fill="#FC7A02"/>
</svg>
