<svg width="526" height="521" viewBox="0 0 526 521" fill="none" xmlns="http://www.w3.org/2000/svg">
<path d="M439.996 145.479C439.996 145.479 443.718 134.735 454.886 134.46C466.052 134.185 462.043 141.071 473.783 139.969C485.522 138.867 481.228 125.645 499.552 122.89C517.879 120.136 525.608 145.479 525.608 145.479H439.996Z" fill="white"/>
<path d="M246.381 17.0254C246.381 17.0254 249.161 9.00233 257.5 8.7967C265.84 8.59107 262.845 13.7342 271.613 12.9104C280.379 12.0879 277.172 2.21423 290.856 0.156754C304.542 -1.90072 310.314 17.0254 310.314 17.0254H246.381Z" fill="white"/>
<path d="M0 97.9512C0 97.9512 2.48436 90.7819 9.93744 90.5979C17.3893 90.4139 14.7138 95.0099 22.5492 94.2739C30.3835 93.5392 27.5168 84.7153 39.7474 82.8755C51.978 81.038 57.1367 97.9512 57.1367 97.9512H0Z" fill="white"/>
<path d="M289.663 520H119.177C100.271 520 84.9451 504.674 84.9451 485.767V85.7817C84.9451 66.876 100.271 51.5502 119.177 51.5502H289.663C308.57 51.5502 323.896 66.876 323.896 85.7817V485.767C323.896 504.674 308.57 520 289.663 520Z" fill="#E3EEFE"/>
<path d="M289.663 51.5502H119.177C100.271 51.5502 84.9451 66.876 84.9451 85.7817V485.768C84.9451 504.674 100.271 520 119.177 520H289.663C308.57 520 323.896 504.674 323.896 485.768V85.7817C323.896 66.876 308.57 51.5502 289.663 51.5502ZM289.663 63.2721C302.075 63.2721 312.174 73.3707 312.174 85.7817V485.768C312.174 498.181 302.075 508.278 289.663 508.278H119.177C106.764 508.278 96.6658 498.181 96.6658 485.768V85.7817C96.6658 73.3707 106.764 63.2721 119.177 63.2721H289.663Z" fill="#010000"/>
<path d="M257.758 52.7324H151.083V65.141C151.083 70.64 155.541 75.0977 161.04 75.0977H247.801C253.299 75.0977 257.758 70.64 257.758 65.141V52.7324Z" fill="#010000"/>
<path d="M184.563 62.0293H225.469" stroke="white" stroke-width="1.01867" stroke-miterlimit="10" stroke-linecap="round" stroke-linejoin="round"/>
<path d="M247.021 468.529H125.182C119.919 468.529 115.651 464.262 115.651 458.998V357.237C115.651 351.974 119.919 347.706 125.182 347.706H247.021C252.285 347.706 256.552 351.974 256.552 357.237V458.998C256.552 464.262 252.285 468.529 247.021 468.529Z" fill="#8CBEFB"/>
<path d="M167.151 400.191H139.153C137.059 400.191 135.362 398.495 135.362 396.402V368.402C135.362 366.31 137.059 364.613 139.153 364.613H167.151C169.244 364.613 170.941 366.31 170.941 368.402V396.402C170.941 398.495 169.244 400.191 167.151 400.191Z" fill="white"/>
<path d="M183.085 375.838H215.244" stroke="black" stroke-width="1.73333" stroke-miterlimit="10" stroke-linecap="round" stroke-linejoin="round"/>
<path d="M183.085 387.289H234.943" stroke="black" stroke-width="1.73333" stroke-miterlimit="10" stroke-linecap="round" stroke-linejoin="round"/>
<path d="M135.362 415.004H170.94" stroke="white" stroke-width="1.73333" stroke-miterlimit="10" stroke-linecap="round" stroke-linejoin="round"/>
<path d="M135.362 426.826H234.943" stroke="white" stroke-width="1.73333" stroke-miterlimit="10" stroke-linecap="round" stroke-linejoin="round"/>
<path d="M135.362 439.852H234.943" stroke="white" stroke-width="1.73333" stroke-miterlimit="10" stroke-linecap="round" stroke-linejoin="round"/>
<path d="M63.6472 167.426C63.6472 183.186 50.8706 195.963 35.1107 195.963C19.3508 195.963 6.57422 183.186 6.57422 167.426C6.57422 151.666 19.3508 138.89 35.1107 138.89C50.8706 138.89 63.6472 151.666 63.6472 167.426Z" fill="#00CFA8"/>
<path d="M23.6152 168.785L32.5714 175.42L47.9165 159.496" stroke="white" stroke-width="2.848" stroke-miterlimit="10" stroke-linecap="round" stroke-linejoin="round"/>
<path d="M146.583 322.07H51.0333C47.5893 322.07 44.7971 319.279 44.7971 315.835V249.263C44.7971 245.819 47.5893 243.028 51.0333 243.028H146.583C150.025 243.028 152.817 245.819 152.817 249.263V315.835C152.817 319.279 150.025 322.07 146.583 322.07Z" fill="#007AFE"/>
<path d="M98.3937 283.543C94.2463 283.543 90.8829 280.181 90.8829 276.034C90.8829 271.886 94.2463 268.523 98.3937 268.523C102.541 268.523 105.905 271.886 105.905 276.034C105.905 280.181 102.541 283.543 98.3937 283.543ZM115.458 276.113C115.458 266.688 107.819 259.049 98.3937 259.049C88.9686 259.049 81.3279 266.688 81.3279 276.113C81.3279 279.263 82.1961 282.203 83.6836 284.735H83.674L83.7233 284.799C84.3774 285.902 85.1482 286.925 86.026 287.85L98.3937 304.232L110.749 287.864C111.637 286.93 112.415 285.897 113.075 284.781L113.11 284.735H113.103C114.591 282.203 115.458 279.263 115.458 276.113Z" fill="white"/>
<path d="M286.772 231.389H121.995C116.731 231.389 112.463 227.121 112.463 221.858V120.096C112.463 114.833 116.731 110.565 121.995 110.565H286.772C292.035 110.565 296.303 114.833 296.303 120.096V221.858C296.303 227.121 292.035 231.389 286.772 231.389Z" fill="white"/>
<path d="M155.453 170.57H130.903C129.068 170.57 127.579 169.083 127.579 167.247V142.696C127.579 140.861 129.068 139.374 130.903 139.374H155.453C157.288 139.374 158.776 140.861 158.776 142.696V167.247C158.776 169.083 157.288 170.57 155.453 170.57Z" fill="#8CBEFB"/>
<path d="M195.195 170.57H170.645C168.81 170.57 167.322 169.083 167.322 167.247V142.696C167.322 140.861 168.81 139.374 170.645 139.374H195.195C197.03 139.374 198.519 140.861 198.519 142.696V167.247C198.519 169.083 197.03 170.57 195.195 170.57Z" fill="#8CBEFB"/>
<path d="M234.938 170.57H210.388C208.553 170.57 207.064 169.083 207.064 167.247V142.696C207.064 140.861 208.553 139.374 210.388 139.374H234.938C236.773 139.374 238.262 140.861 238.262 142.696V167.247C238.262 169.083 236.773 170.57 234.938 170.57Z" fill="#8CBEFB"/>
<path d="M274.682 170.57H250.131C248.296 170.57 246.808 169.083 246.808 167.247V142.696C246.808 140.861 248.296 139.374 250.131 139.374H274.682C276.517 139.374 278.005 140.861 278.005 142.696V167.247C278.005 169.083 276.517 170.57 274.682 170.57Z" fill="#03EE7A"/>
<path d="M155.453 212.652H130.903C129.068 212.652 127.579 211.165 127.579 209.329V184.778C127.579 182.943 129.068 181.456 130.903 181.456H155.453C157.288 181.456 158.776 182.943 158.776 184.778V209.329C158.776 211.165 157.288 212.652 155.453 212.652Z" fill="#8CBEFB"/>
<path d="M195.195 212.652H170.645C168.81 212.652 167.322 211.165 167.322 209.329V184.778C167.322 182.943 168.81 181.456 170.645 181.456H195.195C197.03 181.456 198.519 182.943 198.519 184.778V209.329C198.519 211.165 197.03 212.652 195.195 212.652Z" fill="#8CBEFB"/>
<path d="M234.938 212.652H210.388C208.553 212.652 207.064 211.165 207.064 209.329V184.778C207.064 182.943 208.553 181.456 210.388 181.456H234.938C236.773 181.456 238.262 182.943 238.262 184.778V209.329C238.262 211.165 236.773 212.652 234.938 212.652Z" fill="#8CBEFB"/>
<path d="M274.682 212.652H250.131C248.296 212.652 246.808 211.165 246.808 209.329V184.778C246.808 182.943 248.296 181.456 250.131 181.456H274.682C276.517 181.456 278.005 182.943 278.005 184.778V209.329C278.005 211.165 276.517 212.652 274.682 212.652Z" fill="#8CBEFB"/>
<path d="M133.733 133.133C132.74 133.133 131.845 132.911 131.048 132.467C130.251 132.01 129.624 131.383 129.167 130.586C128.71 129.789 128.481 128.887 128.481 127.881C128.481 126.876 128.71 125.974 129.167 125.177C129.624 124.38 130.251 123.76 131.048 123.316C131.845 122.872 132.74 122.649 133.733 122.649C134.726 122.649 135.621 122.872 136.418 123.316C137.214 123.76 137.835 124.38 138.279 125.177C138.736 125.974 138.965 126.876 138.965 127.881C138.965 128.887 138.736 129.789 138.279 130.586C137.835 131.383 137.214 132.01 136.418 132.467C135.621 132.911 134.726 133.133 133.733 133.133ZM133.733 131.899C134.464 131.899 135.118 131.735 135.692 131.409C136.28 131.069 136.738 130.592 137.064 129.978C137.391 129.364 137.554 128.665 137.554 127.881C137.554 127.098 137.391 126.399 137.064 125.785C136.738 125.171 136.28 124.7 135.692 124.374C135.118 124.034 134.464 123.864 133.733 123.864C133.001 123.864 132.342 124.034 131.754 124.374C131.179 124.7 130.722 125.171 130.382 125.785C130.055 126.399 129.892 127.098 129.892 127.881C129.892 128.665 130.055 129.364 130.382 129.978C130.722 130.592 131.179 131.069 131.754 131.409C132.342 131.735 133.001 131.899 133.733 131.899ZM146.077 133.133C145.058 133.133 144.144 132.911 143.334 132.467C142.537 132.023 141.91 131.402 141.453 130.605C140.995 129.795 140.767 128.887 140.767 127.881C140.767 126.876 140.995 125.974 141.453 125.177C141.91 124.38 142.537 123.76 143.334 123.316C144.144 122.872 145.058 122.649 146.077 122.649C146.966 122.649 147.756 122.826 148.448 123.179C149.154 123.518 149.709 124.021 150.114 124.687L149.075 125.393C148.736 124.883 148.305 124.504 147.782 124.256C147.26 123.995 146.691 123.864 146.077 123.864C145.333 123.864 144.66 124.034 144.059 124.374C143.471 124.7 143.007 125.171 142.668 125.785C142.341 126.399 142.178 127.098 142.178 127.881C142.178 128.678 142.341 129.384 142.668 129.998C143.007 130.599 143.471 131.069 144.059 131.409C144.66 131.735 145.333 131.899 146.077 131.899C146.691 131.899 147.26 131.774 147.782 131.526C148.305 131.278 148.736 130.899 149.075 130.39L150.114 131.095C149.709 131.761 149.154 132.271 148.448 132.624C147.743 132.963 146.953 133.133 146.077 133.133ZM157.769 132.408C157.508 132.643 157.188 132.826 156.809 132.957C156.43 133.074 156.032 133.133 155.614 133.133C154.647 133.133 153.902 132.872 153.38 132.349C152.857 131.827 152.596 131.089 152.596 130.135V120.474H153.987V122.728H157.103V123.904H153.987V130.057C153.987 130.671 154.138 131.141 154.438 131.467C154.739 131.781 155.176 131.938 155.751 131.938C156.378 131.938 156.888 131.761 157.279 131.409L157.769 132.408ZM164.141 133.133C163.148 133.133 162.253 132.911 161.456 132.467C160.659 132.01 160.032 131.383 159.575 130.586C159.118 129.789 158.889 128.887 158.889 127.881C158.889 126.876 159.118 125.974 159.575 125.177C160.032 124.38 160.659 123.76 161.456 123.316C162.253 122.872 163.148 122.649 164.141 122.649C165.134 122.649 166.028 122.872 166.825 123.316C167.622 123.76 168.243 124.38 168.687 125.177C169.144 125.974 169.373 126.876 169.373 127.881C169.373 128.887 169.144 129.789 168.687 130.586C168.243 131.383 167.622 132.01 166.825 132.467C166.028 132.911 165.134 133.133 164.141 133.133ZM164.141 131.899C164.872 131.899 165.525 131.735 166.1 131.409C166.688 131.069 167.145 130.592 167.472 129.978C167.799 129.364 167.962 128.665 167.962 127.881C167.962 127.098 167.799 126.399 167.472 125.785C167.145 125.171 166.688 124.7 166.1 124.374C165.525 124.034 164.872 123.864 164.141 123.864C163.409 123.864 162.749 124.034 162.162 124.374C161.587 124.7 161.13 125.171 160.79 125.785C160.463 126.399 160.3 127.098 160.3 127.881C160.3 128.665 160.463 129.364 160.79 129.978C161.13 130.592 161.587 131.069 162.162 131.409C162.749 131.735 163.409 131.899 164.141 131.899ZM134.83 146.649C135.797 146.649 136.672 146.872 137.456 147.316C138.24 147.747 138.854 148.361 139.298 149.158C139.742 149.955 139.964 150.863 139.964 151.881C139.964 152.9 139.742 153.808 139.298 154.605C138.854 155.402 138.24 156.023 137.456 156.467C136.672 156.911 135.797 157.133 134.83 157.133C133.968 157.133 133.191 156.95 132.498 156.584C131.819 156.219 131.27 155.69 130.852 154.997V157.035H129.52V142.495H130.911V148.687C131.342 148.021 131.891 147.518 132.557 147.179C133.236 146.826 133.994 146.649 134.83 146.649ZM134.732 155.899C135.451 155.899 136.104 155.735 136.692 155.409C137.28 155.069 137.737 154.592 138.064 153.978C138.403 153.364 138.573 152.665 138.573 151.881C138.573 151.098 138.403 150.399 138.064 149.785C137.737 149.171 137.28 148.7 136.692 148.374C136.104 148.034 135.451 147.864 134.732 147.864C134.001 147.864 133.341 148.034 132.753 148.374C132.178 148.7 131.721 149.171 131.381 149.785C131.055 150.399 130.892 151.098 130.892 151.881C130.892 152.665 131.055 153.364 131.381 153.978C131.721 154.592 132.178 155.069 132.753 155.409C133.341 155.735 134.001 155.899 134.732 155.899ZM147.21 155.899C147.85 155.899 148.438 155.788 148.973 155.565C149.522 155.33 149.986 154.991 150.364 154.546L151.148 155.448C150.691 155.997 150.123 156.415 149.443 156.702C148.764 156.989 148.013 157.133 147.19 157.133C146.132 157.133 145.191 156.911 144.368 156.467C143.545 156.01 142.905 155.383 142.448 154.586C141.991 153.789 141.762 152.887 141.762 151.881C141.762 150.876 141.977 149.974 142.409 149.177C142.853 148.38 143.46 147.76 144.231 147.316C145.002 146.872 145.877 146.649 146.857 146.649C147.771 146.649 148.594 146.858 149.326 147.276C150.071 147.695 150.658 148.276 151.09 149.021C151.534 149.765 151.769 150.614 151.795 151.568L143.33 153.214C143.591 154.05 144.061 154.71 144.74 155.193C145.433 155.663 146.256 155.899 147.21 155.899ZM146.857 147.845C146.138 147.845 145.492 148.015 144.917 148.354C144.355 148.681 143.911 149.145 143.584 149.746C143.271 150.333 143.114 151.013 143.114 151.784C143.114 151.979 143.121 152.123 143.134 152.215L150.404 150.804C150.247 149.942 149.848 149.236 149.208 148.687C148.568 148.126 147.784 147.845 146.857 147.845ZM155.959 148.746C156.286 148.054 156.769 147.531 157.409 147.179C158.063 146.826 158.866 146.649 159.82 146.649V148.002L159.487 147.982C158.402 147.982 157.553 148.315 156.939 148.981C156.325 149.648 156.018 150.582 156.018 151.784V157.035H154.627V146.728H155.959V148.746Z" fill="#00CFA8"/>
<path d="M290.067 322.068H182.268C178.825 322.068 176.033 319.277 176.033 315.833V249.261C176.033 245.817 178.825 243.026 182.268 243.026H290.067C293.511 243.026 296.303 245.817 296.303 249.261V315.833C296.303 319.277 293.511 322.068 290.067 322.068Z" fill="white"/>
<path d="M279.95 269.963H194.513C192.678 269.963 191.19 268.475 191.19 266.639V255.316C191.19 253.481 192.678 251.994 194.513 251.994H279.95C281.785 251.994 283.274 253.481 283.274 255.316V266.639C283.274 268.475 281.785 269.963 279.95 269.963Z" fill="#8CBEFB"/>
<path d="M192.393 281.73H234.358" stroke="black" stroke-width="1.73333" stroke-miterlimit="10" stroke-linecap="round" stroke-linejoin="round"/>
<path d="M192.393 291.951H282.072" stroke="black" stroke-width="1.73333" stroke-miterlimit="10" stroke-linecap="round" stroke-linejoin="round"/>
<path d="M192.393 303.223H282.072" stroke="black" stroke-width="1.73333" stroke-miterlimit="10" stroke-linecap="round" stroke-linejoin="round"/>
<path d="M347.874 442.805H285.389C281.197 442.805 277.798 439.406 277.798 435.215V381.019C277.798 376.827 281.197 373.429 285.389 373.429H347.874C352.066 373.429 355.464 376.827 355.464 381.019V435.215C355.464 439.406 352.066 442.805 347.874 442.805Z" fill="#00CFA8"/>
<path d="M316.628 414.878C312.885 414.878 309.85 411.845 309.85 408.101C309.85 404.359 312.885 401.325 316.628 401.325C320.37 401.325 323.405 404.359 323.405 408.101V408.139C323.384 411.867 320.357 414.879 316.628 414.878ZM332.019 405.095L329.467 404.647C329.169 403.535 328.726 402.467 328.15 401.47L329.638 399.349C330.184 398.57 330.092 397.511 329.419 396.838L327.891 395.311C327.208 394.65 326.149 394.574 325.38 395.131L323.259 396.618C322.262 396.043 321.194 395.601 320.082 395.303L319.643 392.693C319.483 391.767 318.688 391.086 317.75 391.068H315.547C314.592 391.066 313.774 391.753 313.612 392.693L313.166 395.237C312.054 395.536 310.986 395.977 309.989 396.555L307.876 395.131C307.096 394.585 306.036 394.677 305.364 395.351L303.836 396.878C303.164 397.551 303.071 398.611 303.617 399.39L305.104 401.511C304.528 402.508 304.086 403.577 303.788 404.688L301.244 405.134C300.304 405.298 299.617 406.114 299.619 407.069V409.231C299.617 410.186 300.304 411.003 301.244 411.165L303.788 411.612C304.086 412.725 304.528 413.792 305.104 414.789L303.617 416.91C303.071 417.69 303.164 418.749 303.836 419.421L305.364 420.95C306.036 421.623 307.096 421.716 307.876 421.168L309.996 419.681C310.993 420.257 312.062 420.699 313.173 420.999L313.621 423.542C313.783 424.483 314.599 425.169 315.554 425.168H317.75C318.705 425.169 319.52 424.483 319.684 423.542L320.13 420.999C321.242 420.699 322.311 420.258 323.308 419.681L325.38 421.136C326.159 421.683 327.218 421.591 327.891 420.916L329.419 419.389C330.092 418.717 330.184 417.657 329.638 416.878L328.15 414.741C328.726 413.744 329.169 412.675 329.467 411.563L332.019 411.117C332.96 410.953 333.646 410.137 333.643 409.182V407.021C333.642 406.069 332.957 405.257 332.019 405.095Z" fill="white"/>
<path d="M17.6992 520H510.651" stroke="black" stroke-miterlimit="10"/>
<path d="M420.616 74.5391H469.087C481.068 74.5391 490.783 64.8253 490.783 52.8424C490.783 40.8607 481.068 31.1469 469.087 31.1469H420.616C408.633 31.1469 398.919 40.8607 398.919 52.8424C398.919 64.8253 408.633 74.5391 420.616 74.5391Z" fill="#8CBEFB"/>
<path d="M437.674 69.7567L421.945 85.1992L419.086 68.6132L437.674 69.7567Z" fill="#8CBEFB"/>
<path d="M437.573 45.9564C435.311 43.7426 431.689 43.7799 429.479 46.0418L428.02 47.5304L426.52 46.0526C424.269 43.8316 420.643 43.8616 418.423 46.1139C416.206 48.3674 416.233 51.9917 418.487 54.2103L424.056 59.6937C424.068 59.7057 424.075 59.7202 424.087 59.731C424.976 60.6028 426.074 61.1235 427.217 61.299C428.98 61.5684 430.839 61.0153 432.182 59.6468L437.658 54.0528C439.871 51.7933 439.832 48.169 437.573 45.9564Z" fill="white"/>
<path d="M448.526 47.8809H470.826" stroke="white" stroke-width="1.35867" stroke-miterlimit="10" stroke-linecap="round" stroke-linejoin="round"/>
<path d="M448.525 54.0684H460.287" stroke="white" stroke-width="1.35867" stroke-miterlimit="10" stroke-linecap="round" stroke-linejoin="round"/>
<path d="M375.325 505.022L361.063 512.872C359.552 513.705 358.636 515.61 359.106 517.416C359.475 518.842 360.693 519.933 363.866 519.995C370.917 520.136 402.115 514.936 402.115 514.936V519.422L416.694 519.497C416.694 519.497 417.607 498.291 413.198 495.588L375.325 505.022Z" fill="#200200"/>
<path d="M394.43 489.426L375.324 505.022C375.324 505.022 377.782 512.074 388.671 507.372C399.558 502.671 413.197 495.589 413.197 495.589L411.208 487.428L394.43 489.426Z" fill="#F9C795"/>
<path d="M411.208 487.43L413.197 430.816L394.26 429.277V495.59L411.208 487.43Z" fill="#F9C795"/>
<path d="M377.489 260.837L385.41 481.301H422.137L424.013 243.027L377.489 260.837Z" fill="#3F1C1C"/>
<path d="M381.607 256.972L400.087 364.388C402.327 377.644 415.919 385.731 428.639 381.374C437.996 378.17 444.02 369.067 443.316 359.203L439.78 310.412C437.997 293.85 442.105 272.434 424.013 243.027L381.607 256.972Z" fill="#5B302E"/>
<path d="M478.742 499.61L470.817 513.831C469.978 515.339 470.211 517.439 471.568 518.721C472.639 519.734 474.249 520.013 476.972 518.382C483.024 514.761 506.712 493.803 506.712 493.803L509.091 497.605L521.491 489.935C521.491 489.935 511.013 471.475 505.841 471.523L478.742 499.61Z" fill="#200200"/>
<path d="M486.664 476.255L478.742 499.61C478.742 499.61 484.567 504.284 491.302 494.522C498.037 484.762 505.841 471.522 505.841 471.522L499.828 465.66L486.664 476.255Z" fill="#F9C795"/>
<path d="M499.828 465.661L471.479 416.614L454.61 425.355L489.789 481.568L499.828 465.661Z" fill="#F9C795"/>
<path d="M402.839 371.891L471.106 473.699L502.921 453.304L436.941 342.533L402.839 371.891Z" fill="#5B302E"/>
<path d="M351.908 82.5156C351.908 82.5156 336.739 80.5399 334.759 94.8965C333.287 105.584 338.206 110.848 334.35 119.442C330.496 128.037 337.728 135.724 337.728 135.724C337.728 135.724 355.698 144.069 375.221 127.001L351.908 82.5156Z" fill="#B6A496"/>
<path d="M357.802 130.542L366.032 151.924L383.253 147.336L367.347 116.6L357.802 130.542Z" fill="#F9C795"/>
<path d="M361.735 140.76L365.265 125.096L358.846 133.255L361.735 140.76Z" fill="black"/>
<path d="M349.987 85.7304C349.987 85.7304 339.764 87.8876 339.757 100.861C339.757 100.861 339.268 105.819 339.917 119.335C340.376 128.91 344.894 135.538 353.877 134.623C358.233 134.178 362.796 131.519 366.882 128.076L372.604 122.244C385.835 106.098 372.031 81.7657 351.481 85.4346C350.989 85.5223 350.492 85.6209 349.987 85.7304Z" fill="#F9C795"/>
<path d="M340.57 111.793L336.947 118.154C336.522 118.827 336.742 119.863 337.632 119.919L342.328 120.531L340.57 111.793Z" fill="#F9C795"/>
<path d="M364.732 108.013C365.097 105.077 367.094 84.6501 351.791 87.2872C349.417 87.696 348.214 84.5359 350.257 83.26C355.725 79.8449 364.41 77.4904 376.967 82.3269C382.064 84.2894 389.088 91.0101 389.09 97.613C389.097 111.786 384.375 118.972 376.068 126.267C375.642 126.643 374.969 126.515 374.708 126.01L369.356 115.667C369.337 115.63 369.322 115.595 369.31 115.554C368.72 113.678 365.741 109.729 364.906 108.644C364.764 108.462 364.705 108.242 364.732 108.013Z" fill="#B6A496"/>
<path d="M354.488 82.2719C335.243 91.1427 363.407 112.26 363.407 112.26L371.332 96.661C371.332 96.661 357.703 80.7904 354.488 82.2719Z" fill="#B6A496"/>
<path d="M341.731 99.9407L351.908 103.391C351.908 103.391 350.136 100.116 346.528 98.363C341.68 96.0085 341.731 99.9407 341.731 99.9407Z" fill="black"/>
<path d="M343.872 106.892C343.872 106.892 347.294 107.632 347.412 111.05C347.532 114.466 343.81 114.233 343.81 114.233C343.81 114.233 340.598 110.099 343.872 106.892Z" fill="white"/>
<path d="M344.563 106.009C344.563 106.009 347.221 110.949 343.809 114.234C340.398 117.518 343.809 114.234 343.809 114.234L341.895 114.051L341.804 108.606L344.563 106.009Z" fill="black"/>
<path d="M343.047 106.033C343.678 106.076 344.185 106.217 344.716 106.425C345.233 106.634 345.719 106.929 346.134 107.298C346.549 107.666 346.903 108.102 347.143 108.588C347.406 109.062 347.543 109.58 347.656 110.089C347.68 110.196 347.612 110.302 347.505 110.326C347.407 110.346 347.311 110.292 347.277 110.202L347.271 110.186C347.096 109.731 346.906 109.284 346.618 108.91C346.351 108.523 346.003 108.208 345.625 107.96C345.244 107.71 344.823 107.532 344.383 107.425C343.956 107.321 343.459 107.274 343.083 107.306L343.058 107.309C342.705 107.338 342.396 107.077 342.366 106.725C342.336 106.373 342.597 106.063 342.95 106.033C342.981 106.032 343.017 106.032 343.047 106.033Z" fill="black"/>
<path d="M340.545 122.345C339.329 122.536 339.238 123.945 340.35 124.399C340.35 124.399 338.88 125.901 341.113 126.4C343.344 126.9 345.436 123.088 345.436 123.088C342.714 123.692 342.148 122.094 340.545 122.345Z" fill="#E81114"/>
<path d="M366.162 116.687C367.359 125.25 366.364 134.708 366.364 134.708C366.364 134.708 390.649 142.512 401.685 114.877C401.685 114.877 394.637 112.16 392.473 106.1C390.309 100.042 392.445 78.9649 364.098 79.5902C364.098 79.5902 364.812 107.04 366.162 116.687Z" fill="#B6A496"/>
<path d="M375.491 112.086C375.939 115.672 373.395 118.943 369.809 119.39C366.223 119.838 362.952 117.294 362.505 113.709C362.058 110.122 364.601 106.852 368.188 106.405C371.774 105.956 375.043 108.501 375.491 112.086Z" fill="#F9C795"/>
<path d="M366.162 115.666C366.162 115.666 366.419 110.684 370.524 110.596" stroke="black" stroke-width="0.681333" stroke-miterlimit="10" stroke-linecap="round" stroke-linejoin="round"/>
<path d="M408.436 163.756L448.691 196.354C454.454 201.278 454.892 210.035 449.647 215.509C444.851 220.515 436.999 220.954 431.674 216.514L387.988 181.905L408.436 163.756Z" fill="#F9C795"/>
<path d="M432.586 175.724C432.586 175.724 430.865 188.704 408.246 203.602L377.501 180.747C368.916 174.364 367.662 161.988 374.791 154.013C380.7 147.406 390.508 146.016 398.019 150.722L432.586 175.724Z" fill="#BDBEC0"/>
<path d="M431.843 216.981L471.772 268.279L481.567 256.799L451.716 199.82C446.861 193.27 437.281 192.663 431.639 198.546C426.675 203.722 426.767 211.917 431.843 216.981Z" fill="#F9C795"/>
<path d="M469.446 266.103L469.034 268.671C468.484 272.121 468.751 275.653 469.815 278.982L471.688 284.841C472.133 286.233 473.724 286.892 475.024 286.221C476.121 285.655 476.763 284.478 476.647 283.25L476.035 276.75L489.023 295.13C489.637 296.045 490.915 296.216 491.747 295.491L492.305 295.005C492.962 294.434 493.123 293.478 492.692 292.721L484.401 280.043L495.939 293.288C496.609 294.159 497.889 294.248 498.674 293.479L499.062 293.096C499.721 292.448 499.793 291.412 499.231 290.678L489.69 278.396L498.98 286.128C499.856 286.904 501.223 286.67 501.792 285.649L501.907 285.444C502.297 284.743 502.186 283.87 501.634 283.29L492.554 274.57L498.255 277.977C499.304 278.826 500.88 278.289 501.188 276.976C501.337 276.35 501.145 275.695 500.685 275.247L477.52 253.562L472.786 258.977C471.024 260.991 469.868 263.461 469.446 266.103Z" fill="#F9C795"/>
<path d="M377.671 146.685C377.671 146.685 361.85 145.152 361.643 173.733C361.435 202.387 370.477 215.894 377.49 260.836C377.49 260.836 404.322 257.547 424.014 243.027C424.014 243.027 425.239 137.764 377.671 146.685Z" fill="#FDFDFF"/>
<path d="M374.473 184.975L337.054 220.793C331.442 225.889 322.699 225.218 317.931 219.325C313.571 213.935 314.126 206.09 319.203 201.369L359.049 162.4L374.473 184.975Z" fill="#F9C795"/>
<path d="M364.27 207.686C364.27 207.686 351.218 207.235 337.798 180.625L364.111 152.781C371.46 145.005 383.897 145.216 390.979 153.235C396.845 159.879 397.071 169.782 391.515 176.688L364.27 207.686Z" fill="#FBFBFB"/>
<path d="M367.884 203.574L385.873 183.107" stroke="black" stroke-width="0.681333" stroke-miterlimit="10" stroke-linecap="round" stroke-linejoin="round"/>
<path d="M336.398 201.767L283.078 161.421L276.078 172.4L318.214 219.717C323.352 225.761 332.693 225.731 337.791 219.652C342.275 214.306 341.655 206.355 336.398 201.767Z" fill="#F9C795"/>
<path d="M290.142 172.565C288.132 179.32 281.612 179.051 268.794 175.457C262.006 173.554 259.544 168.745 261.553 161.989C263.562 155.232 270.668 151.384 277.425 153.393C284.181 155.404 292.151 165.808 290.142 172.565Z" fill="#F9C795"/>
<path d="M279.775 154.354L263.482 144.882C262.41 144.154 260.904 144.414 260.162 145.454C259.52 146.356 259.664 147.559 260.505 148.291L273.15 158.982L279.775 154.354Z" fill="#F9C795"/>
</svg>
