<svg width="64" height="64" viewBox="0 0 64 64" fill="none" xmlns="http://www.w3.org/2000/svg">
<path d="M0 56.1467V56.5217C0.80125 58.4404 2.67125 59.6154 4.27875 60.4929C5.88625 61.3704 7.48625 61.7742 9.53125 62.0467C11.5763 62.3192 14.5013 62.2492 16.4062 61.8717C18.3113 61.4942 20.0938 60.9517 22 60.2717C21.4325 61.5754 21.4625 63.4404 23 63.7717C23.6325 63.7142 24.4675 63.7117 25 63.8967H26.125C28.3662 63.4717 30.2887 63.4479 32.4062 62.8729C34.5238 62.2967 36.3975 61.7329 38.0962 60.8242C39.795 59.9167 41.185 59.3392 43.0312 57.6779C44.8775 56.0167 45.9938 54.1379 46.7738 52.4904C47.5537 50.8417 48.12 48.2079 47.9175 45.9367C47.715 43.6667 47.2162 42.2017 46.1787 40.5504C45.1413 38.8992 43.245 36.7767 41.4625 35.4342C39.6813 34.0904 38.1087 33.1429 36.2188 31.5467C34.3288 29.9504 34.1025 27.4829 35.875 25.7717C38.9125 26.8504 43.4487 27.4692 47.2812 27.0467C51.1125 26.6242 53.9675 25.3754 56.8462 23.8242C59.7262 22.2742 63.3675 19.6942 63.875 16.0217C63.89 15.5254 63.83 15.0154 63.875 14.5217C63.515 11.2767 58.7012 11.3354 55.9062 11.6717C53.11 12.0079 48.9525 12.1592 45.9688 11.9467C42.985 11.7342 40.89 10.7229 39.2663 8.38667C37.6425 6.05042 35.3963 3.48042 33.0938 2.19542C30.7925 0.911667 28.6225 0.174167 25.5 0.0216667C24.505 -0.0270833 23.4963 0.0216667 22.5 0.0216667C19.9788 0.0216667 17.8188 0.606667 15.9712 1.32417C14.1225 2.04292 12.8925 2.86292 11.1375 4.28417C9.3825 5.70542 7.9075 7.58667 7.17375 9.17792C6.44125 10.7679 5.845 12.5804 5.65 14.7404C5.455 16.9017 5.97 19.6992 6.70125 21.4279C7.43125 23.1554 8.06375 24.5417 9.03625 26.2342C10.0075 27.9267 10.8187 29.1167 11.525 30.8654C12.2312 32.6142 12.815 34.4017 13.1 36.6154C13.385 38.8292 13.1663 41.8354 12.6 43.8654C12.035 45.8967 11.2475 47.3642 9.7875 49.1842C8.3275 51.0042 6.1375 52.2442 4.615 53.1304C3.0925 54.0167 0.73625 54.0604 0 56.1467ZM26.5 8.39667C28.6025 7.80417 30.5362 10.0417 29.9112 11.9342C29.2862 13.8279 27 14.7242 25.4037 13.2429C23.8075 11.7617 24.4937 8.96167 26.5 8.39667ZM60.25 15.3967C59.2625 18.7392 55.8463 20.1367 53.4038 21.3442C50.9613 22.5504 47.1587 23.7017 43.6162 23.4054C40.0737 23.1104 37.4688 22.9279 35.0312 20.6154C32.5938 18.3029 34.2012 13.7667 36.75 11.8967C39.0863 13.5579 40.4625 14.6779 42.9625 15.3104C45.4625 15.9417 49.0587 15.9592 51.885 15.7804C54.71 15.6017 57.1675 15.1779 60.25 15.3967Z" fill="#FFAD33"/>
</svg>
