<svg width="64" height="64" viewBox="0 0 64 64" fill="none" xmlns="http://www.w3.org/2000/svg">
<path d="M-0.000976562 56.1467V56.5217C0.800273 58.4404 2.67027 59.6154 4.27777 60.4929C5.88527 61.3704 7.48527 61.7742 9.53027 62.0467C11.5753 62.3192 14.5003 62.2492 16.4053 61.8717C18.3103 61.4942 20.0928 60.9517 21.999 60.2717C21.4315 61.5754 21.4615 63.4404 22.999 63.7717C23.6315 63.7142 24.4665 63.7117 24.999 63.8967H26.124C28.3653 63.4717 30.2878 63.4479 32.4053 62.8729C34.5228 62.2967 36.3965 61.7329 38.0953 60.8242C39.794 59.9167 41.184 59.3392 43.0303 57.6779C44.8765 56.0167 45.9928 54.1379 46.7728 52.4904C47.5528 50.8417 48.119 48.2079 47.9165 45.9367C47.714 43.6667 47.2153 42.2017 46.1778 40.5504C45.1403 38.8992 43.244 36.7767 41.4615 35.4342C39.6803 34.0904 38.1078 33.1429 36.2178 31.5467C34.3278 29.9504 34.1015 27.4829 35.874 25.7717C38.9115 26.8504 43.4478 27.4692 47.2803 27.0467C51.1115 26.6242 53.9665 25.3754 56.8453 23.8242C59.7253 22.2742 63.3665 19.6942 63.874 16.0217C63.889 15.5254 63.829 15.0154 63.874 14.5217C63.514 11.2767 58.7003 11.3354 55.9053 11.6717C53.109 12.0079 48.9515 12.1592 45.9678 11.9467C42.984 11.7342 40.889 10.7229 39.2653 8.38667C37.6415 6.05042 35.3953 3.48042 33.0928 2.19542C30.7915 0.911667 28.6215 0.174167 25.499 0.0216667C24.504 -0.0270833 23.4953 0.0216667 22.499 0.0216667C19.9778 0.0216667 17.8178 0.606667 15.9703 1.32417C14.1215 2.04292 12.8915 2.86292 11.1365 4.28417C9.38152 5.70542 7.90652 7.58667 7.17277 9.17792C6.44027 10.7679 5.84402 12.5804 5.64902 14.7404C5.45402 16.9017 5.96902 19.6992 6.70027 21.4279C7.43027 23.1554 8.06277 24.5417 9.03527 26.2342C10.0065 27.9267 10.8178 29.1167 11.524 30.8654C12.2303 32.6142 12.814 34.4017 13.099 36.6154C13.384 38.8292 13.1653 41.8354 12.599 43.8654C12.034 45.8967 11.2465 47.3642 9.78652 49.1842C8.32652 51.0042 6.13652 52.2442 4.61402 53.1304C3.09152 54.0167 0.735273 54.0604 -0.000976562 56.1467ZM26.499 8.39667C28.6015 7.80417 30.5353 10.0417 29.9103 11.9342C29.2853 13.8279 26.999 14.7242 25.4028 13.2429C23.8065 11.7617 24.4928 8.96167 26.499 8.39667ZM60.249 15.3967C59.2615 18.7392 55.8453 20.1367 53.4028 21.3442C50.9603 22.5504 47.1578 23.7017 43.6153 23.4054C40.0728 23.1104 37.4678 22.9279 35.0303 20.6154C32.5928 18.3029 34.2003 13.7667 36.749 11.8967C39.0853 13.5579 40.4615 14.6779 42.9615 15.3104C45.4615 15.9417 49.0578 15.9592 51.884 15.7804C54.709 15.6017 57.1665 15.1779 60.249 15.3967Z" fill="#BC742D"/>
</svg>
