<svg width="26" height="26" viewBox="0 0 26 26" fill="none" xmlns="http://www.w3.org/2000/svg">
<g clip-path="url(#clip0_1007_6980)">
<path d="M24.7897 12.7318C24.7533 12.6521 23.8913 10.7382 21.9873 8.83413C19.4396 6.29046 16.2288 4.94531 12.6864 4.94531C9.14393 4.94531 5.9331 6.29046 3.38844 8.83413C1.48438 10.7382 0.622388 12.6521 0.583027 12.7318C0.516364 12.8829 0.481934 13.0463 0.481934 13.2115C0.481934 13.3767 0.516364 13.5401 0.583027 13.6912C0.619436 13.7719 1.48143 15.6848 3.38648 17.5889C5.9331 20.1326 9.14393 21.4767 12.6864 21.4767C16.2288 21.4767 19.4396 20.1326 21.9833 17.5889C23.8884 15.6848 24.7504 13.7719 24.7868 13.6912C24.8539 13.5403 24.8888 13.377 24.8893 13.2118C24.8898 13.0466 24.8559 12.8831 24.7897 12.7318ZM20.2574 15.979C18.1447 18.0592 15.5981 19.1151 12.6864 19.1151C9.77468 19.1151 7.22806 18.0592 5.11834 15.9781C4.28817 15.1566 3.57407 14.2257 2.99582 13.211C3.57424 12.1968 4.28833 11.2662 5.11834 10.445C7.22904 8.36279 9.77468 7.30694 12.6864 7.30694C15.5981 7.30694 18.1437 8.36279 20.2544 10.445C21.0845 11.2661 21.7986 12.1967 22.3769 13.211C21.7986 14.2256 21.0845 15.1566 20.2544 15.9781L20.2574 15.979ZM12.6864 8.88136C11.83 8.88136 10.993 9.13529 10.2809 9.61104C9.56894 10.0868 9.014 10.763 8.6863 11.5541C8.35859 12.3453 8.27285 13.2158 8.43991 14.0557C8.60697 14.8956 9.01933 15.667 9.62485 16.2725C10.2304 16.878 11.0018 17.2904 11.8417 17.4575C12.6816 17.6245 13.5521 17.5388 14.3433 17.2111C15.1344 16.8834 15.8106 16.3284 16.2863 15.6164C16.7621 14.9044 17.016 14.0673 17.016 13.211C17.0147 12.0631 16.5581 10.9626 15.7465 10.1509C14.9348 9.33924 13.8343 8.88266 12.6864 8.88136ZM12.6864 15.179C12.2971 15.179 11.9166 15.0636 11.593 14.8474C11.2694 14.6311 11.0171 14.3238 10.8682 13.9641C10.7192 13.6045 10.6802 13.2088 10.7562 12.8271C10.8321 12.4453 11.0195 12.0946 11.2948 11.8194C11.57 11.5442 11.9207 11.3567 12.3024 11.2808C12.6842 11.2049 13.0799 11.2438 13.4395 11.3928C13.7991 11.5417 14.1065 11.794 14.3227 12.1176C14.539 12.4413 14.6544 12.8218 14.6544 13.211C14.6544 13.733 14.4471 14.2335 14.078 14.6026C13.7089 14.9717 13.2083 15.179 12.6864 15.179Z" fill="#2E3238"/>
</g>
<defs>
<clipPath id="clip0_1007_6980">
<rect width="25.1907" height="25.1907" fill="white" transform="translate(0.0913086 0.615234)"/>
</clipPath>
</defs>
</svg>
