<svg width="26" height="26" viewBox="0 0 26 26" fill="none" xmlns="http://www.w3.org/2000/svg">
<path d="M20.6585 3.07422H4.91431C4.39236 3.07422 3.89179 3.28156 3.52271 3.65064C3.15363 4.01972 2.94629 4.52029 2.94629 5.04224V20.7864C2.94629 21.3084 3.15363 21.809 3.52271 22.178C3.89179 22.5471 4.39236 22.7545 4.91431 22.7545H20.6585C21.1805 22.7545 21.681 22.5471 22.0501 22.178C22.4192 21.809 22.6265 21.3084 22.6265 20.7864V5.04224C22.6265 4.52029 22.4192 4.01972 22.0501 3.65064C21.681 3.28156 21.1805 3.07422 20.6585 3.07422ZM20.2649 5.43585V11.706L18.5075 9.94852C18.1384 9.57958 17.6379 9.37231 17.1161 9.37231C16.5942 9.37231 16.0937 9.57958 15.7247 9.94852L5.30792 20.3653V5.43585H20.2649ZM8.6201 20.3928L17.1161 11.8969L20.2649 15.0457V20.3928H8.6201ZM7.66955 9.7655C7.66955 9.37626 7.78497 8.99576 8.00122 8.67212C8.21747 8.34848 8.52483 8.09624 8.88444 7.94728C9.24405 7.79833 9.63975 7.75935 10.0215 7.83529C10.4033 7.91123 10.7539 8.09866 11.0292 8.3739C11.3044 8.64913 11.4918 8.9998 11.5678 9.38156C11.6437 9.76332 11.6047 10.159 11.4558 10.5186C11.3068 10.8782 11.0546 11.1856 10.7309 11.4019C10.4073 11.6181 10.0268 11.7335 9.63757 11.7335C9.11562 11.7335 8.61504 11.5262 8.24597 11.1571C7.87689 10.788 7.66955 10.2875 7.66955 9.7655Z" fill="black"/>
</svg>
