<svg width="26" height="26" viewBox="0 0 26 26" fill="none" xmlns="http://www.w3.org/2000/svg">
<path d="M21.4096 5.04347H17.8671V3.86265C17.8671 3.13192 17.5769 2.43112 17.0601 1.91441C16.5434 1.3977 15.8426 1.10742 15.1119 1.10742H10.3886C9.65791 1.10742 8.95711 1.3977 8.4404 1.91441C7.9237 2.43112 7.63341 3.13192 7.63341 3.86265V5.04347H4.09097C3.7778 5.04347 3.47745 5.16788 3.25601 5.38932C3.03456 5.61077 2.91016 5.91111 2.91016 6.22428C2.91016 6.53745 3.03456 6.8378 3.25601 7.05924C3.47745 7.28069 3.7778 7.4051 4.09097 7.4051H4.48458V20.7877C4.48458 21.3096 4.69192 21.8102 5.061 22.1793C5.43007 22.5483 5.93065 22.7557 6.4526 22.7557H19.0479C19.5699 22.7557 20.0705 22.5483 20.4396 22.1793C20.8086 21.8102 21.016 21.3096 21.016 20.7877V7.4051H21.4096C21.7227 7.4051 22.0231 7.28069 22.2445 7.05924C22.466 6.8378 22.5904 6.53745 22.5904 6.22428C22.5904 5.91111 22.466 5.61077 22.2445 5.38932C22.0231 5.16788 21.7227 5.04347 21.4096 5.04347ZM9.99504 3.86265C9.99504 3.75826 10.0365 3.65815 10.1103 3.58433C10.1841 3.51052 10.2843 3.46905 10.3886 3.46905H15.1119C15.2163 3.46905 15.3164 3.51052 15.3902 3.58433C15.464 3.65815 15.5055 3.75826 15.5055 3.86265V5.04347H9.99504V3.86265ZM18.6543 20.3941H6.8462V7.4051H18.6543V20.3941ZM11.5695 10.5539V16.8516C11.5695 17.1648 11.4451 17.4651 11.2236 17.6866C11.0022 17.908 10.7018 18.0324 10.3886 18.0324C10.0755 18.0324 9.77513 17.908 9.55368 17.6866C9.33224 17.4651 9.20783 17.1648 9.20783 16.8516V10.5539C9.20783 10.2408 9.33224 9.94042 9.55368 9.71897C9.77513 9.49753 10.0755 9.37312 10.3886 9.37312C10.7018 9.37312 11.0022 9.49753 11.2236 9.71897C11.4451 9.94042 11.5695 10.2408 11.5695 10.5539ZM16.2927 10.5539V16.8516C16.2927 17.1648 16.1683 17.4651 15.9469 17.6866C15.7254 17.908 15.4251 18.0324 15.1119 18.0324C14.7987 18.0324 14.4984 17.908 14.2769 17.6866C14.0555 17.4651 13.9311 17.1648 13.9311 16.8516V10.5539C13.9311 10.2408 14.0555 9.94042 14.2769 9.71897C14.4984 9.49753 14.7987 9.37312 15.1119 9.37312C15.4251 9.37312 15.7254 9.49753 15.9469 9.71897C16.1683 9.94042 16.2927 10.2408 16.2927 10.5539Z" fill="black"/>
</svg>
